# Blender 5.2.1 LTS
# www.blender.org
o left_thumb_1
v 0.001171 -0.000937 -0.007467
v 0.001082 -0.001039 -0.007338
v 0.004921 0.000005 -0.007341
v -0.001341 0.000672 -0.008700
v -0.007741 -0.001067 -0.008700
v -0.001356 0.000641 -0.008700
v -0.001443 0.000411 -0.008690
v -0.005857 -0.001751 -0.008430
v -0.001356 -0.000642 -0.008372
v -0.006013 -0.001659 -0.008489
v -0.001448 -0.000393 -0.008500
v -0.006200 -0.001558 -0.008547
v -0.001496 -0.000115 -0.008599
v -0.006610 -0.001372 -0.008632
v -0.001494 0.000139 -0.008656
v -0.007041 -0.001222 -0.008679
v -0.007517 -0.001105 -0.008698
v -0.005555 -0.001951 -0.008274
v -0.005288 -0.002156 -0.008072
v -0.001209 -0.000887 -0.008195
v -0.005157 -0.002268 -0.007940
v -0.001028 -0.001092 -0.007991
v -0.005063 -0.002353 -0.007827
v -0.004888 -0.002525 -0.007554
v -0.000844 -0.001240 -0.007791
v -0.004787 -0.002632 -0.007341
v -0.000779 -0.001282 -0.007721
v -0.000491 -0.001418 -0.007421
v 0.000963 -0.001150 -0.007187
v 0.000743 -0.001303 -0.006964
v 0.004988 -0.000244 -0.006641
v 0.000970 -0.001144 -0.007195
v 0.000571 -0.001387 -0.006855
v 0.000407 -0.001444 -0.006814
v 0.000393 -0.001448 -0.006814
v -0.004599 -0.002849 -0.006641
v 0.000247 -0.001479 -0.006840
v 0.000057 -0.001499 -0.006938
v -0.000195 -0.001487 -0.007138
v -0.000250 -0.001479 -0.007187
v -0.004641 -0.002798 -0.006870
v -0.004743 -0.002680 -0.007228
v 0.001496 0.000115 -0.008362
v 0.001490 -0.000171 -0.008183
v 0.004802 0.000436 -0.007938
v 0.001439 -0.000425 -0.007988
v 0.004846 0.000280 -0.007761
v 0.001356 -0.000642 -0.007791
v 0.001332 -0.000690 -0.007743
v 0.004768 0.000546 -0.008047
v 0.004675 0.000828 -0.008274
v 0.001492 0.000156 -0.008385
v 0.004612 0.001004 -0.008385
v 0.001448 0.000393 -0.008500
v 0.000817 0.001258 -0.008700
v 0.000845 0.001239 -0.008700
v 0.004076 0.002144 -0.008700
v 0.001051 0.001071 -0.008689
v 0.004247 0.001827 -0.008676
v 0.001218 0.000876 -0.008656
v 0.004333 0.001654 -0.008643
v 0.001355 0.000644 -0.008594
v 0.004417 0.001474 -0.008594
v 0.004564 0.001129 -0.008453
v -0.004560 -0.002897 -0.006100
v 0.005003 -0.000299 -0.006100
v -0.004580 -0.002872 -0.006490
v -0.001962 -0.010896 -0.006500
v 0.007206 -0.008405 -0.006500
v -0.001932 -0.011006 -0.005926
v 0.007236 -0.008515 -0.005926
v -0.001847 -0.011320 -0.005439
v 0.007321 -0.008829 -0.005439
v -0.001719 -0.011789 -0.005114
v 0.007449 -0.009298 -0.005114
v -0.001569 -0.012343 -0.005000
v 0.007599 -0.009852 -0.005000
v -0.001418 -0.012897 -0.005114
v 0.007750 -0.010406 -0.005114
v -0.001291 -0.013367 -0.005439
v 0.007877 -0.010876 -0.005439
v -0.001205 -0.013680 -0.005926
v 0.007962 -0.011190 -0.005926
v -0.001175 -0.013791 -0.006500
v 0.007992 -0.011300 -0.006500
v -0.002573 -0.008648 0.002193
v 0.006595 -0.006157 0.002193
v -0.002543 -0.008758 0.002767
v 0.006625 -0.006267 0.002767
v -0.002457 -0.009072 0.003254
v 0.006710 -0.006581 0.003254
v -0.002330 -0.009541 0.003579
v 0.006838 -0.007050 0.003579
v -0.002179 -0.010095 0.003693
v 0.006988 -0.007604 0.003693
v -0.002029 -0.010649 0.003579
v 0.007139 -0.008158 0.003579
v -0.001901 -0.011119 0.003254
v 0.007266 -0.008628 0.003254
v -0.001816 -0.011433 0.002767
v 0.007352 -0.008942 0.002767
v -0.001786 -0.011543 0.002193
v 0.007382 -0.009052 0.002193
v -0.006970 0.002769 -0.011500
v -0.006970 0.002769 -0.008700
v -0.006709 0.002245 -0.011500
v -0.006709 0.002245 -0.008700
v -0.006268 0.001861 -0.011500
v -0.006268 0.001861 -0.008700
v -0.005713 0.001675 -0.011500
v -0.005713 0.001675 -0.008700
v -0.005129 0.001715 -0.011500
v -0.005129 0.001715 -0.008700
v -0.004605 0.001976 -0.011500
v -0.004605 0.001976 -0.008700
v -0.004221 0.002417 -0.011500
v -0.004221 0.002417 -0.008700
v -0.004035 0.002972 -0.011500
v -0.004035 0.002972 -0.008700
v -0.004075 0.003556 -0.011500
v -0.004075 0.003556 -0.008700
v -0.001286 -0.000771 -0.011500
v -0.001448 -0.000393 -0.011500
v 0.001448 0.000393 -0.011500
v 0.001500 -0.000014 -0.011500
v 0.001356 -0.000641 -0.011500
v 0.000963 -0.001150 -0.011500
v 0.000393 -0.001448 -0.011500
v -0.000845 -0.001239 -0.011500
v -0.000249 -0.001479 -0.011500
v -0.006970 0.002769 -0.003500
v -0.006970 0.002769 0.000000
v -0.006709 0.002245 -0.003500
v -0.006709 0.002245 0.000000
v -0.006268 0.001861 -0.003500
v -0.006268 0.001861 0.000000
v -0.005713 0.001675 -0.003500
v -0.005713 0.001675 0.000000
v -0.005129 0.001715 -0.003500
v -0.005129 0.001715 0.000000
v -0.004605 0.001976 -0.003500
v -0.004605 0.001976 0.000000
v -0.004221 0.002417 -0.003500
v -0.004221 0.002417 0.000000
v -0.004035 0.002972 -0.003500
v -0.004035 0.002972 0.000000
v -0.004075 0.003556 -0.003500
v -0.004075 0.003556 0.000000
v -0.001448 -0.000393 -0.003700
v -0.001448 -0.000393 0.000000
v -0.001366 -0.000621 -0.003815
v -0.001286 -0.000771 0.000000
v -0.001348 -0.000658 -0.003838
v -0.000845 -0.001239 0.000000
v -0.001026 -0.001095 -0.004212
v -0.001199 -0.000902 -0.004017
v -0.000249 -0.001479 0.000000
v -0.000258 -0.001478 -0.005006
v -0.000408 -0.001444 -0.004862
v -0.000535 -0.001402 -0.004734
v -0.000799 -0.001269 -0.004457
v -0.000844 -0.001240 -0.004409
v 0.000380 -0.001451 -0.005386
v 0.000209 -0.001485 -0.005345
v 0.000393 -0.001448 0.000000
v 0.000019 -0.001500 -0.005237
v -0.000249 -0.001479 -0.005013
v 0.000711 -0.001321 -0.005262
v 0.000536 -0.001401 -0.005360
v 0.000394 -0.001447 -0.005386
v 0.001356 -0.000641 0.000000
v 0.001356 -0.000642 -0.004409
v 0.000963 -0.001150 0.000000
v 0.001319 -0.000714 -0.004481
v 0.001140 -0.000975 -0.004780
v 0.001082 -0.001039 -0.004862
v 0.000964 -0.001149 -0.005013
v 0.000921 -0.001184 -0.005063
v 0.001500 -0.000014 0.000000
v 0.001448 0.000393 0.000000
v 0.001448 0.000393 -0.003700
v 0.001494 0.000132 -0.003828
v 0.001492 -0.000154 -0.004005
v 0.001439 -0.000423 -0.004210
v -0.001896 -0.011137 -0.011500
v 0.000845 0.001239 -0.011500
v 0.000249 0.001479 -0.011500
v 0.001102 0.005125 -0.011500
v 0.007271 -0.008646 -0.011500
v -0.001356 0.000641 -0.011500
v -0.001500 0.000014 -0.011500
v -0.000151 0.005705 -0.011500
v -0.000393 0.001448 -0.011500
v -0.001485 0.006061 -0.011500
v 0.002236 0.004338 -0.011500
v 0.003218 0.003368 -0.011500
v 0.001286 0.000771 -0.011500
v 0.004019 0.002243 -0.011500
v 0.004614 0.000998 -0.011500
v 0.004846 0.000280 -0.011500
v -0.002860 0.006183 -0.011500
v -0.000963 0.001150 -0.011500
v -0.004236 0.006066 -0.011500
v -0.004336 0.004080 -0.011500
v -0.004972 0.005903 -0.011500
v -0.007741 -0.001067 -0.011500
v -0.008528 0.001828 -0.011500
v -0.008633 0.002604 -0.011500
v -0.007010 0.003353 -0.011500
v -0.003645 -0.004703 -0.011500
v -0.003904 -0.003975 -0.011500
v -0.004437 -0.003058 -0.011500
v -0.005151 -0.002274 -0.011500
v -0.006014 -0.001658 -0.011500
v -0.006988 -0.001238 -0.011500
v -0.004777 0.004464 -0.011500
v -0.005332 0.004651 -0.011500
v -0.006419 0.005510 -0.011500
v -0.005916 0.004610 -0.011500
v -0.007142 0.005207 -0.011500
v -0.006440 0.004350 -0.011500
v -0.007761 0.004729 -0.011500
v -0.006824 0.003908 -0.011500
v -0.008236 0.004106 -0.011500
v -0.008533 0.003381 -0.011500
v 0.000817 0.001258 -0.003500
v 0.000845 0.001239 -0.003500
v 0.000845 0.001239 0.000000
v 0.001286 0.000771 0.000000
v 0.001037 0.001084 -0.003510
v 0.001219 0.000875 -0.003544
v 0.001348 0.000658 -0.003601
v 0.000249 0.001479 -0.003500
v 0.000249 0.001479 0.000000
v -0.000393 0.001448 -0.003500
v -0.000393 0.001448 0.000000
v -0.000963 0.001150 -0.003500
v -0.000963 0.001150 0.000000
v -0.001341 0.000672 -0.003500
v -0.001356 0.000641 0.000000
v -0.001356 0.000641 -0.003500
v -0.001448 0.000392 -0.003511
v -0.001500 0.000014 0.000000
v -0.001493 0.000140 -0.003544
v -0.001494 -0.000130 -0.003606
v -0.006419 0.005510 -0.003500
v -0.006419 0.005510 0.000000
v -0.004972 0.005903 -0.003500
v -0.004972 0.005903 0.000000
v -0.008528 0.001828 -0.003500
v -0.007741 -0.001067 -0.003500
v -0.008528 0.001828 0.000000
v -0.007741 -0.001067 0.000000
v -0.004336 0.004080 -0.003500
v -0.004336 0.004080 0.000000
v -0.004777 0.004464 -0.003500
v -0.004777 0.004464 0.000000
v -0.005332 0.004651 -0.003500
v -0.005332 0.004651 0.000000
v -0.005916 0.004610 -0.003500
v -0.005916 0.004610 0.000000
v -0.006440 0.004350 -0.003500
v -0.006440 0.004350 0.000000
v -0.006824 0.003908 -0.003500
v -0.006824 0.003908 0.000000
v -0.007010 0.003353 -0.003500
v -0.007010 0.003353 0.000000
v -0.004236 0.006066 0.000000
v -0.004236 0.006066 -0.003500
v -0.002860 0.006183 0.000000
v -0.002860 0.006183 -0.003500
v -0.001485 0.006061 0.000000
v -0.001485 0.006061 -0.003500
v -0.000151 0.005705 0.000000
v -0.000151 0.005705 -0.003500
v 0.001102 0.005125 0.000000
v 0.001102 0.005125 -0.003500
v 0.002236 0.004338 0.000000
v 0.002236 0.004338 -0.003500
v 0.003218 0.003368 0.000000
v 0.003218 0.003368 -0.003500
v 0.004019 0.002243 0.000000
v 0.004019 0.002243 -0.003500
v 0.004538 0.001193 -0.003716
v 0.004387 0.001541 -0.003586
v 0.004614 0.000998 0.000000
v 0.004215 0.001890 -0.003515
v 0.004076 0.002144 -0.003500
v 0.004846 0.000280 0.000000
v 0.004846 0.000280 -0.004439
v 0.004802 0.000436 -0.004261
v 0.004767 0.000554 -0.004145
v 0.004665 0.000860 -0.003904
v 0.004612 0.001004 -0.003815
v -0.007142 0.005207 -0.003500
v -0.007142 0.005207 0.000000
v -0.007761 0.004729 -0.003500
v -0.007761 0.004729 0.000000
v -0.008236 0.004106 -0.003500
v -0.008236 0.004106 0.000000
v -0.008533 0.003381 -0.003500
v -0.008533 0.003381 0.000000
v -0.008633 0.002604 -0.003500
v -0.008633 0.002604 0.000000
v -0.000963 0.001150 -0.008700
v -0.000393 0.001448 -0.008700
v 0.000249 0.001479 -0.008700
v 0.005390 -0.001721 0.000000
v -0.003803 -0.004218 0.000000
v -0.004437 -0.003058 0.000000
v -0.003904 -0.003975 0.000000
v -0.006988 -0.001238 0.000000
v -0.006014 -0.001658 0.000000
v -0.005151 -0.002274 0.000000
v 0.007599 -0.009852 -0.002192
v 0.007599 -0.009852 -0.000445
v -0.001569 -0.012343 -0.002192
v -0.001569 -0.012343 -0.000445
v -0.002649 -0.008365 0.004783
v -0.002818 -0.007746 0.004192
v -0.001375 -0.013055 0.002913
v -0.001458 -0.012750 0.003727
v -0.001596 -0.012242 0.004423
v -0.001901 -0.011119 0.001133
v -0.001499 -0.012599 0.000406
v -0.001816 -0.011433 0.001619
v -0.001397 -0.012976 0.001187
v -0.001354 -0.013132 0.002044
v -0.002937 -0.007307 0.003447
v -0.002998 -0.007082 0.002607
v -0.003032 -0.006957 0.002046
v -0.002543 -0.008758 0.001619
v -0.003123 -0.006622 0.001338
v -0.001779 -0.011569 0.004948
v -0.001992 -0.010783 0.005262
v -0.002220 -0.009945 0.005339
v -0.002445 -0.009117 0.005176
v -0.002330 -0.009541 0.000808
v -0.002457 -0.009072 0.001133
v -0.003259 -0.006120 0.000744
v -0.003432 -0.005486 0.000306
v -0.003628 -0.004764 0.000055
v -0.003645 -0.004703 0.000043
v -0.001847 -0.011320 -0.007561
v -0.001719 -0.011789 -0.007886
v -0.001569 -0.012343 -0.008000
v -0.001932 -0.011006 -0.007074
v -0.001418 -0.012897 -0.007886
v -0.000988 -0.014480 -0.009500
v -0.001291 -0.013367 -0.007561
v -0.000883 -0.014865 -0.008535
v -0.001205 -0.013680 -0.007074
v -0.000848 -0.014997 -0.007500
v -0.000848 -0.014997 -0.006500
v -0.001625 -0.012136 -0.011364
v -0.001372 -0.013067 -0.010964
v -0.001155 -0.013866 -0.010328
v -0.001265 -0.013460 -0.004006
v -0.001390 -0.013002 -0.003697
v -0.001486 -0.012646 -0.003268
v -0.000877 -0.014891 -0.005729
v -0.000961 -0.014580 -0.005020
v -0.001094 -0.014090 -0.004430
v -0.002179 -0.010095 0.000693
v -0.002029 -0.010649 0.000808
v -0.001548 -0.012420 -0.002752
v -0.001551 -0.012408 0.000001
v 0.006170 -0.004591 0.002607
v 0.006231 -0.004816 0.003447
v 0.006625 -0.006267 0.001619
v 0.006045 -0.004131 0.001338
v 0.006136 -0.004466 0.002046
v 0.006838 -0.007050 0.000808
v 0.007792 -0.010564 0.002913
v 0.007813 -0.010641 0.002044
v 0.007352 -0.008942 0.001619
v 0.007771 -0.010485 0.001187
v 0.007266 -0.008628 0.001133
v 0.007175 -0.008293 0.005262
v 0.007389 -0.009079 0.004948
v 0.007572 -0.009751 0.004423
v 0.007710 -0.010260 0.003727
v 0.006710 -0.006581 0.001133
v 0.005736 -0.002995 0.000306
v 0.005908 -0.003629 0.000744
v 0.007236 -0.008515 -0.007074
v 0.004921 0.000005 -0.004859
v 0.004988 -0.000244 -0.005559
v 0.006350 -0.005255 0.004192
v 0.006518 -0.005874 0.004783
v 0.006723 -0.006627 0.005176
v 0.006947 -0.007454 0.005339
v 0.005540 -0.002273 0.000055
v 0.007750 -0.010406 -0.007886
v 0.007796 -0.010576 -0.010964
v 0.007599 -0.009852 -0.008000
v 0.007543 -0.009645 -0.011364
v 0.007449 -0.009298 -0.007886
v 0.007321 -0.008829 -0.007561
v 0.007620 -0.009930 -0.002752
v 0.007139 -0.008158 0.000808
v 0.007877 -0.010876 -0.007561
v 0.008180 -0.011989 -0.009500
v 0.008013 -0.011375 -0.010328
v 0.006988 -0.007604 0.000693
v 0.007681 -0.010155 -0.003268
v 0.007778 -0.010512 -0.003697
v 0.007903 -0.010970 -0.004006
v 0.008074 -0.011599 -0.004430
v 0.007668 -0.010108 0.000406
v 0.007617 -0.009918 0.000001
v 0.008207 -0.012089 -0.005020
v 0.008291 -0.012400 -0.005729
v 0.008320 -0.012506 -0.006500
v 0.007962 -0.011190 -0.007074
v 0.008320 -0.012506 -0.007500
v 0.008284 -0.012375 -0.008535
v -0.004972 0.005903 -0.008700
v -0.006419 0.005510 -0.008700
v -0.008528 0.001828 -0.008700
v -0.004336 0.004080 -0.008700
v -0.004777 0.004464 -0.008700
v -0.005332 0.004651 -0.008700
v -0.005916 0.004610 -0.008700
v -0.006440 0.004350 -0.008700
v -0.006824 0.003908 -0.008700
v -0.007010 0.003353 -0.008700
v 0.004019 0.002243 -0.008700
v 0.003218 0.003368 -0.008700
v 0.002236 0.004338 -0.008700
v 0.001102 0.005125 -0.008700
v -0.000151 0.005705 -0.008700
v -0.001485 0.006061 -0.008700
v -0.002860 0.006183 -0.008700
v -0.004236 0.006066 -0.008700
v -0.007142 0.005207 -0.008700
v -0.007761 0.004729 -0.008700
v -0.008236 0.004106 -0.008700
v -0.008533 0.003381 -0.008700
v -0.008633 0.002604 -0.008700
v -0.003673 -0.004603 0.000028
v -0.005140 -0.002283 -0.004278
v -0.004940 -0.002472 -0.004553
v -0.004594 -0.002855 -0.005590
v -0.004666 -0.002768 -0.005220
v -0.004783 -0.002636 -0.004868
v -0.005374 -0.002087 -0.004054
v -0.006768 -0.001312 -0.003547
v -0.005678 -0.001865 -0.003855
v -0.005759 -0.001812 -0.003814
v -0.005986 -0.001674 -0.003720
v -0.006359 -0.001481 -0.003614
v -0.007222 -0.001172 -0.003512
v -0.004562 -0.002894 -0.005975
vn -0.5387 0.7901 0.2924
vn -0.4990 0.8325 0.2409
vn 0.5516 0.7744 0.3098
vn 0.5764 -0.3621 0.7325
vn -0.5368 -0.5898 0.6033
vn 0.6418 -0.2577 0.7223
vn 0.6614 -0.1364 0.7375
vn -0.5518 -0.3504 0.7568
vn 0.5077 0.6280 0.5898
vn -0.4912 -0.4164 0.7650
vn 0.5956 0.4610 0.6578
vn -0.4225 -0.4820 0.7676
vn 0.6573 0.2604 0.7072
vn -0.3304 -0.5606 0.7593
vn 0.6789 0.0641 0.7314
vn -0.2280 -0.6313 0.7413
vn -0.1517 -0.6760 0.7212
vn -0.6305 -0.2592 0.7316
vn -0.7125 -0.1538 0.6845
vn 0.3919 0.7625 0.5147
vn -0.7640 -0.0730 0.6411
vn 0.2883 0.8528 0.4354
vn -0.8074 -0.0049 0.5900
vn -0.8522 0.0779 0.5173
vn 0.1991 0.9011 0.3851
vn -0.8820 0.1439 0.4488
vn 0.1325 0.9310 0.3401
vn 0.0338 0.9627 0.2686
vn -0.4328 0.8789 0.2005
vn -0.3640 0.9146 0.1761
vn 0.5371 0.8293 0.1540
vn -0.4734 0.8530 0.2195
vn -0.3092 0.9379 0.1574
vn -0.2753 0.9515 0.1372
vn -0.2501 0.9594 0.1304
vn -0.9416 0.2714 0.1993
vn -0.2164 0.9640 0.1548
vn -0.1612 0.9716 0.1733
vn -0.0928 0.9748 0.2028
vn -0.0443 0.9727 0.2280
vn -0.9306 0.2333 0.2820
vn -0.9071 0.1894 0.3758
vn -0.7575 0.3236 0.5670
vn -0.7251 0.4628 0.5098
vn 0.5607 0.6700 0.4865
vn -0.6780 0.5918 0.4359
vn 0.5566 0.7134 0.4258
vn -0.6425 0.6663 0.3784
vn -0.5934 0.7282 0.3429
vn 0.5702 0.6405 0.5145
vn 0.5752 0.5986 0.5575
vn -0.7599 0.2226 0.6108
vn 0.5762 0.5625 0.5929
vn -0.7486 0.0906 0.6568
vn -0.3146 -0.6041 0.7321
vn -0.4226 -0.5527 0.7183
vn 0.6224 0.3711 0.6892
vn -0.5145 -0.4462 0.7322
vn 0.6162 0.4154 0.6691
vn -0.6216 -0.2892 0.7280
vn 0.6007 0.4471 0.6627
vn -0.7045 -0.1003 0.7026
vn 0.5948 0.4861 0.6402
vn 0.5884 0.5261 0.6140
vn -0.9524 0.3039 0.0222
vn 0.5268 0.8500 -0.0003
vn -0.9504 0.2883 0.1163
vn -0.5551 -0.8318 -0.0000
vn 0.8997 -0.4365 -0.0000
vn -0.5682 -0.7835 -0.2515
vn 0.8866 -0.3883 -0.2515
vn -0.6056 -0.6460 -0.4647
vn 0.8492 -0.2508 -0.4647
vn -0.6615 -0.4403 -0.6071
vn 0.7933 -0.0451 -0.6071
vn -0.7274 -0.1976 -0.6571
vn 0.7274 0.1976 -0.6571
vn -0.7933 0.0451 -0.6071
vn 0.6615 0.4403 -0.6071
vn -0.8492 0.2508 -0.4647
vn 0.6056 0.6461 -0.4647
vn -0.8866 0.3882 -0.2515
vn 0.5682 0.7835 -0.2515
vn -0.8997 0.4365 -0.0000
vn 0.5551 0.8318 -0.0000
vn -0.7274 -0.1976 -0.6572
vn 0.7274 0.1976 -0.6572
vn 0.6056 0.6460 -0.4647
vn 0.6341 0.1723 -0.7538
vn 0.6341 0.1723 0.7538
vn 0.5199 0.4019 -0.7538
vn 0.5199 0.4019 0.7538
vn 0.3266 0.5703 -0.7538
vn 0.3266 0.5702 0.7538
vn 0.0835 0.6518 -0.7538
vn 0.0835 0.6518 0.7538
vn -0.1723 0.6341 -0.7538
vn -0.1723 0.6341 0.7538
vn -0.4019 0.5199 -0.7538
vn -0.4019 0.5199 0.7538
vn -0.5703 0.3266 -0.7538
vn -0.5702 0.3266 0.7538
vn -0.6518 0.0835 -0.7538
vn -0.6518 0.0835 0.7538
vn -0.6341 -0.1723 -0.7538
vn -0.6341 -0.1723 0.7538
vn 0.5565 0.3623 -0.7477
vn 0.6492 0.1747 -0.7403
vn -0.6514 -0.1770 -0.7378
vn -0.6644 0.0315 -0.7467
vn -0.5904 0.2805 -0.7568
vn -0.4203 0.5004 -0.7569
vn -0.1697 0.6306 -0.7574
vn 0.3667 0.5401 -0.7575
vn 0.1081 0.6426 -0.7585
vn 0.6342 0.1723 -0.7538
vn 0.6342 0.1723 0.7538
vn 0.5200 0.4019 -0.7538
vn 0.3266 0.5702 -0.7538
vn -0.1723 0.6342 0.7538
vn -0.5702 0.3266 -0.7538
vn -0.6342 -0.1723 -0.7538
vn 0.6000 0.4567 -0.6568
vn 0.6511 0.1769 0.7381
vn 0.5457 0.5804 -0.6044
vn 0.5567 0.3633 0.7471
vn 0.4956 0.6582 -0.5667
vn 0.3673 0.5403 0.7571
vn 0.2886 0.8562 -0.4284
vn 0.3913 0.7663 -0.5095
vn 0.1092 0.6440 0.7572
vn -0.0235 0.9753 -0.2195
vn 0.0088 0.9705 -0.2409
vn 0.0649 0.9543 -0.2918
vn 0.1439 0.9285 -0.3423
vn 0.2208 0.8985 -0.3793
vn -0.2441 0.9600 -0.1369
vn -0.2079 0.9654 -0.1571
vn -0.1724 0.6296 0.7575
vn -0.1487 0.9731 -0.1757
vn -0.0715 0.9771 -0.2004
vn -0.3530 0.9195 -0.1728
vn -0.3012 0.9410 -0.1545
vn -0.2697 0.9541 -0.1305
vn -0.5895 0.2800 0.7577
vn -0.6287 0.6768 -0.3830
vn -0.4184 0.4996 0.7586
vn -0.5862 0.7361 -0.3385
vn -0.5311 0.7982 -0.2842
vn -0.4911 0.8354 -0.2469
vn -0.4523 0.8637 -0.2226
vn -0.4144 0.8876 -0.2013
vn -0.6631 0.0312 0.7479
vn -0.6486 -0.1776 0.7401
vn -0.7474 0.0952 -0.6575
vn -0.7543 0.2852 -0.5914
vn -0.7236 0.4608 -0.5139
vn -0.6786 0.5900 -0.4375
vn -0.6561 -0.2271 -0.7197
vn -0.3670 -0.5415 -0.7564
vn -0.1076 -0.6429 -0.7583
vn 0.3606 0.6296 -0.6882
vn 0.6808 0.1361 -0.7197
vn 0.5891 -0.2784 -0.7586
vn 0.6608 -0.0306 -0.7499
vn 0.2470 0.6822 -0.6882
vn 0.1708 -0.6287 -0.7587
vn 0.1260 0.7145 -0.6882
vn 0.4634 0.5582 -0.6882
vn 0.5525 0.4702 -0.6882
vn -0.5579 -0.3631 -0.7463
vn 0.6243 0.3686 -0.6888
vn 0.6704 0.2655 -0.6929
vn 0.6829 0.2035 -0.7016
vn 0.0013 0.7255 -0.6882
vn 0.4183 -0.4994 -0.7587
vn -0.1088 0.7133 -0.6924
vn -0.5199 -0.4019 -0.7538
vn -0.1705 0.6916 -0.7018
vn -0.5498 -0.5738 -0.6071
vn -0.7069 -0.1432 -0.6927
vn -0.7342 -0.0026 -0.6789
vn 0.6518 -0.0835 -0.7538
vn -0.6665 -0.2088 -0.7157
vn -0.6217 -0.2887 -0.7281
vn -0.5515 -0.4024 -0.7307
vn -0.4536 -0.5115 -0.7298
vn -0.3367 -0.5954 -0.7295
vn -0.2114 -0.6537 -0.7266
vn -0.3266 -0.5702 -0.7538
vn -0.0835 -0.6518 -0.7538
vn -0.2342 0.6822 -0.6927
vn 0.1723 -0.6341 -0.7538
vn -0.3693 0.6346 -0.6789
vn 0.4019 -0.5199 -0.7538
vn -0.5210 0.5174 -0.6789
vn 0.5702 -0.3266 -0.7538
vn -0.6372 0.3649 -0.6789
vn -0.7099 0.1876 -0.6789
vn -0.3141 -0.6041 -0.7324
vn -0.4227 -0.5484 -0.7215
vn -0.3671 -0.5382 0.7586
vn -0.5544 -0.3612 0.7498
vn -0.5034 -0.4524 -0.7361
vn -0.6187 -0.2887 -0.7307
vn -0.7000 -0.1072 -0.7061
vn -0.1050 -0.6443 -0.7576
vn -0.1081 -0.6424 0.7587
vn 0.1708 -0.6287 0.7587
vn 0.4165 -0.5031 -0.7572
vn 0.4182 -0.5000 0.7584
vn 0.5771 -0.3619 -0.7321
vn 0.5902 -0.2808 0.7568
vn 0.6442 -0.2629 -0.7183
vn 0.6699 -0.1247 -0.7319
vn 0.6643 -0.0312 0.7468
vn 0.6829 0.0650 -0.7276
vn 0.6586 0.2697 -0.7024
vn -0.2342 0.6822 0.6927
vn -0.1705 0.6916 0.7018
vn -0.5464 -0.5783 -0.6058
vn -0.7069 -0.1432 0.6927
vn -0.5498 -0.5733 0.6075
vn -0.5199 -0.4019 0.7538
vn -0.3266 -0.5702 0.7538
vn -0.0835 -0.6518 0.7538
vn 0.1723 -0.6341 0.7538
vn 0.4019 -0.5199 0.7538
vn 0.5702 -0.3266 0.7538
vn 0.6518 -0.0835 0.7538
vn -0.1088 0.7133 0.6924
vn 0.0013 0.7255 0.6882
vn 0.1260 0.7145 0.6882
vn 0.2470 0.6822 0.6882
vn 0.2469 0.6822 -0.6882
vn 0.3606 0.6296 0.6882
vn 0.4634 0.5582 0.6882
vn 0.5525 0.4702 0.6882
vn 0.6233 0.3690 0.6894
vn 0.6032 0.3883 -0.6967
vn 0.5879 0.5198 -0.6198
vn 0.6042 0.4701 -0.6435
vn 0.6695 0.2654 0.6938
vn 0.6169 0.4112 -0.6711
vn 0.6160 0.3705 -0.6951
vn 0.6827 0.2025 0.7021
vn 0.5564 0.7136 -0.4257
vn 0.5579 0.6732 -0.4854
vn 0.5677 0.6377 -0.5206
vn 0.5743 0.5930 -0.5644
vn 0.5739 0.5578 -0.5996
vn -0.3693 0.6346 0.6789
vn -0.5210 0.5174 0.6789
vn -0.6372 0.3649 0.6789
vn -0.7099 0.1876 0.6789
vn -0.7343 -0.0026 0.6789
vn 0.4167 -0.5024 0.7576
vn -0.1047 -0.6447 0.7572
vn 0.6841 0.2202 0.6954
vn -0.6689 -0.2271 0.7078
vn -0.5500 -0.4029 0.7316
vn -0.6197 -0.3069 0.7223
vn -0.2117 -0.6528 0.7274
vn -0.3361 -0.5942 0.7307
vn -0.4528 -0.5099 0.7314
vn 0.8787 -0.4749 0.0490
vn 0.8793 -0.4734 -0.0519
vn -0.5176 -0.8542 0.0490
vn -0.5189 -0.8533 -0.0519
vn -0.7633 0.2265 0.6050
vn -0.8026 0.3712 0.4669
vn -0.4657 -0.8688 0.1682
vn -0.4850 -0.7978 0.3583
vn -0.5173 -0.6791 0.5209
vn -0.8492 0.2508 0.4647
vn -0.5177 -0.7965 -0.3123
vn -0.8866 0.3883 0.2515
vn -0.4707 -0.8504 -0.2351
vn -0.4608 -0.8868 -0.0348
vn -0.8305 0.4738 0.2929
vn -0.8586 0.4817 0.1754
vn -0.8758 0.4256 0.2275
vn -0.5682 -0.7835 0.2515
vn -0.8594 0.3486 0.3740
vn -0.5600 -0.5219 0.6435
vn -0.6098 -0.3383 0.7167
vn -0.6631 -0.1424 0.7349
vn -0.7156 0.0508 0.6967
vn -0.6615 -0.4403 0.6071
vn -0.6056 -0.6460 0.4647
vn -0.8288 0.2358 0.5075
vn -0.7900 0.0932 0.6060
vn -0.7434 -0.0233 0.6684
vn -0.7145 -0.0760 0.6955
vn -0.7274 -0.1976 0.6571
vn -0.7933 0.0451 0.6071
vn -0.4884 -0.7916 -0.3671
vn -0.4692 -0.8624 -0.1900
vn -0.4797 -0.8761 -0.0472
vn -0.4784 -0.8767 0.0513
vn -0.6053 -0.3614 -0.7092
vn -0.5589 -0.5323 -0.6359
vn -0.5190 -0.6790 -0.5192
vn -0.5813 -0.5574 0.5928
vn -0.5985 -0.6212 0.5059
vn -0.5659 -0.7409 0.3616
vn -0.4676 -0.8595 0.2064
vn -0.4902 -0.7764 0.3962
vn -0.5258 -0.6452 0.5543
vn -0.5453 -0.8168 0.1884
vn -0.5489 -0.8119 -0.1990
vn 0.4968 0.8499 0.1754
vn 0.4765 0.8289 0.2929
vn 0.8866 -0.3883 0.2515
vn 0.5648 0.7356 0.3740
vn 0.5401 0.8103 0.2275
vn 0.7933 -0.0451 0.6071
vn 0.8413 -0.5137 0.1682
vn 0.8462 -0.5317 -0.0348
vn 0.5682 0.7835 0.2515
vn 0.8363 -0.4953 -0.2351
vn 0.6056 0.6460 0.4647
vn 0.6972 0.0168 0.7167
vn 0.7471 -0.1668 0.6435
vn 0.7898 -0.3240 0.5209
vn 0.8220 -0.4426 0.3583
vn 0.8492 -0.2508 0.4647
vn 0.6342 0.4801 0.6060
vn 0.5955 0.6227 0.5075
vn 0.5508 0.7745 -0.3110
vn 0.5365 0.8299 -0.1529
vn 0.5044 0.7263 0.4669
vn 0.5437 0.5817 0.6050
vn 0.5915 0.4060 0.6967
vn 0.6440 0.2127 0.7349
vn 0.6705 0.3292 0.6648
vn 0.6615 0.4403 0.6071
vn 0.7514 -0.1763 -0.6359
vn 0.7274 0.1976 0.6571
vn 0.7049 -0.0054 -0.7092
vn 0.8837 -0.4286 0.1884
vn 0.8218 -0.4357 -0.3671
vn 0.7913 -0.3230 -0.5192
vn 0.7274 0.1976 0.6572
vn 0.8630 -0.3527 0.3616
vn 0.8305 -0.2329 0.5059
vn 0.7834 -0.1866 0.5928
vn 0.7800 -0.2904 0.5542
vn 0.8496 -0.4250 -0.3123
vn 0.8842 -0.4225 -0.1990
vn 0.8157 -0.4216 0.3962
vn 0.8382 -0.5047 0.2064
vn 0.8562 -0.5141 0.0513
vn 0.8571 -0.5129 -0.0472
vn 0.8411 -0.5064 -0.1900
vn 0.6032 0.3883 0.6967
vn -0.7009 -0.1359 0.7002
vn -0.7719 -0.0629 -0.6326
vn -0.8401 0.0504 -0.5401
vn -0.9475 0.2635 -0.1809
vn -0.9267 0.2170 -0.3069
vn -0.8885 0.1399 -0.4370
vn -0.6916 -0.1872 -0.6976
vn -0.2921 -0.5894 -0.7532
vn -0.6104 -0.2805 -0.7408
vn -0.5548 -0.3392 -0.7597
vn -0.4928 -0.4125 -0.7661
vn -0.3900 -0.5114 -0.7658
vn -0.1900 -0.6531 -0.7330
vn -0.9525 0.2977 -0.0635
s 1
f 1//1 2//2 3//3
f 4//4 5//5 6//6
f 6//6 5//5 7//7
f 8//8 9//9 10//10
f 10//10 9//9 11//11
f 10//10 11//11 12//12
f 12//12 11//11 13//13
f 12//12 13//13 14//14
f 14//14 13//13 15//15
f 14//14 15//15 16//16
f 16//16 15//15 7//7
f 16//16 7//7 17//17
f 17//17 7//7 5//5
f 8//8 18//18 9//9
f 9//9 18//18 19//19
f 9//9 19//19 20//20
f 20//20 19//19 21//21
f 20//20 21//21 22//22
f 21//21 23//23 22//22
f 22//22 23//23 24//24
f 22//22 24//24 25//25
f 25//25 24//24 26//26
f 25//25 26//26 27//27
f 27//27 26//26 28//28
f 29//29 30//30 31//31
f 3//3 2//2 31//31
f 31//31 2//2 32//32
f 31//31 32//32 29//29
f 30//30 33//33 31//31
f 31//31 33//33 34//34
f 31//31 34//34 35//35
f 36//36 37//37 38//38
f 38//38 39//39 36//36
f 36//36 39//39 40//40
f 36//36 40//40 41//41
f 41//41 40//40 28//28
f 41//41 28//28 42//42
f 42//42 28//28 26//26
f 43//43 44//44 45//45
f 45//45 44//44 46//46
f 45//45 46//46 47//47
f 47//47 46//46 48//48
f 47//47 48//48 3//3
f 3//3 48//48 49//49
f 3//3 49//49 1//1
f 45//45 50//50 43//43
f 43//43 50//50 51//51
f 43//43 51//51 52//52
f 52//52 51//51 53//53
f 52//52 53//53 54//54
f 55//55 56//56 57//57
f 57//57 56//56 58//58
f 57//57 58//58 59//59
f 59//59 58//58 60//60
f 59//59 60//60 61//61
f 61//61 60//60 62//62
f 61//61 62//62 63//63
f 63//63 62//62 54//54
f 63//63 54//54 64//64
f 64//64 54//54 53//53
f 65//65 66//66 67//67
f 67//67 66//66 31//31
f 67//67 31//31 36//36
f 36//36 31//31 35//35
f 36//36 35//35 37//37
f 68//68 69//69 70//70
f 70//70 69//69 71//71
f 70//70 71//71 72//72
f 72//72 71//71 73//73
f 72//72 73//73 74//74
f 74//74 73//73 75//75
f 74//74 75//75 76//76
f 76//76 75//75 77//77
f 76//76 77//77 78//78
f 78//78 77//77 79//79
f 78//78 79//79 80//80
f 80//80 79//79 81//81
f 80//80 81//81 82//82
f 82//82 81//81 83//83
f 82//82 83//83 84//84
f 84//84 83//83 85//85
f 86//68 87//69 88//70
f 88//70 87//69 89//71
f 88//70 89//71 90//72
f 90//72 89//71 91//73
f 90//72 91//73 92//74
f 92//74 91//73 93//75
f 92//74 93//75 94//86
f 94//86 93//75 95//87
f 94//86 95//87 96//78
f 96//78 95//87 97//79
f 96//78 97//79 98//80
f 98//80 97//79 99//88
f 98//80 99//88 100//82
f 100//82 99//88 101//83
f 100//82 101//83 102//84
f 102//84 101//83 103//85
f 104//89 105//90 106//91
f 106//91 105//90 107//92
f 106//91 107//92 108//93
f 108//93 107//92 109//94
f 108//93 109//94 110//95
f 110//95 109//94 111//96
f 110//95 111//96 112//97
f 112//97 111//96 113//98
f 112//97 113//98 114//99
f 114//99 113//98 115//100
f 114//99 115//100 116//101
f 116//101 115//100 117//102
f 116//101 117//102 118//103
f 118//103 117//102 119//104
f 118//103 119//104 120//105
f 120//105 119//104 121//106
f 122//107 123//108 11//11
f 54//54 124//109 52//52
f 52//52 124//109 125//110
f 52//52 125//110 43//43
f 126//111 46//46 125//110
f 125//110 46//46 44//44
f 125//110 44//44 43//43
f 127//112 32//32 2//2
f 2//2 1//1 127//112
f 127//112 1//1 49//49
f 127//112 49//49 126//111
f 126//111 49//49 48//48
f 126//111 48//48 46//46
f 34//34 33//33 128//113
f 128//113 33//33 30//30
f 128//113 30//30 127//112
f 127//112 30//30 29//29
f 127//112 29//29 32//32
f 38//38 37//37 128//113
f 128//113 37//37 35//35
f 128//113 35//35 34//34
f 129//114 25//25 130//115
f 130//115 25//25 27//27
f 27//27 28//28 130//115
f 130//115 28//28 40//40
f 130//115 40//40 128//113
f 128//113 40//40 39//39
f 128//113 39//39 38//38
f 11//11 9//9 122//107
f 122//107 9//9 20//20
f 122//107 20//20 129//114
f 129//114 20//20 22//22
f 129//114 22//22 25//25
f 131//116 132//117 133//118
f 133//118 132//117 134//92
f 133//118 134//92 135//119
f 135//119 134//92 136//94
f 135//119 136//94 137//95
f 137//95 136//94 138//96
f 137//95 138//96 139//97
f 139//97 138//96 140//120
f 139//97 140//120 141//99
f 141//99 140//120 142//100
f 141//99 142//100 143//121
f 143//121 142//100 144//102
f 143//121 144//102 145//103
f 145//103 144//102 146//104
f 145//103 146//104 147//122
f 147//122 146//104 148//106
f 149//123 150//124 151//125
f 151//125 150//124 152//126
f 151//125 152//126 153//127
f 154//128 155//129 152//126
f 152//126 155//129 156//130
f 152//126 156//130 153//127
f 157//131 158//132 159//133
f 159//133 160//134 157//131
f 157//131 160//134 161//135
f 157//131 161//135 154//128
f 154//128 161//135 162//136
f 154//128 162//136 155//129
f 163//137 164//138 165//139
f 165//139 164//138 166//140
f 165//139 166//140 157//131
f 157//131 166//140 167//141
f 157//131 167//141 158//132
f 168//142 169//143 165//139
f 165//139 169//143 170//144
f 165//139 170//144 163//137
f 171//145 172//146 173//147
f 173//147 172//146 174//148
f 173//147 174//148 175//149
f 175//149 176//150 173//147
f 173//147 176//150 177//151
f 173//147 177//151 165//139
f 165//139 177//151 178//152
f 165//139 178//152 168//142
f 179//153 180//154 181//155
f 181//155 182//156 179//153
f 179//153 182//156 183//157
f 179//153 183//157 171//145
f 171//145 183//157 184//158
f 171//145 184//158 172//146
f 122//107 129//114 185//159
f 186//160 187//161 188//162
f 122//107 185//159 123//108
f 129//114 130//115 185//159
f 185//159 130//115 128//113
f 185//159 128//113 189//163
f 190//164 191//165 112//97
f 112//97 191//165 123//108
f 188//162 187//161 192//166
f 192//166 187//161 193//167
f 192//166 193//167 194//168
f 188//162 195//169 186//160
f 186//160 195//169 196//170
f 186//160 196//170 197//171
f 197//171 196//170 198//172
f 197//171 198//172 124//109
f 124//109 198//172 199//173
f 124//109 199//173 125//110
f 125//110 199//173 200//174
f 125//110 200//174 126//111
f 126//111 200//174 189//163
f 126//111 189//163 127//112
f 127//112 189//163 128//113
f 194//168 193//167 201//175
f 201//175 193//167 202//176
f 201//175 202//176 203//177
f 112//97 114//99 190//164
f 190//164 114//99 116//101
f 190//164 116//101 202//176
f 202//176 116//101 118//103
f 202//176 118//103 120//105
f 120//105 204//178 202//176
f 202//176 204//178 205//179
f 202//176 205//179 203//177
f 108//93 206//180 106//91
f 106//91 206//180 207//181
f 106//91 207//181 104//89
f 104//89 207//181 208//182
f 104//89 208//182 209//183
f 123//108 185//159 112//97
f 112//97 185//159 210//184
f 112//97 210//184 211//185
f 211//185 212//186 112//97
f 112//97 212//186 213//187
f 112//97 213//187 110//95
f 110//95 213//187 214//188
f 110//95 214//188 108//93
f 108//93 214//188 215//189
f 108//93 215//189 206//180
f 204//178 216//190 205//179
f 205//179 216//190 217//191
f 205//179 217//191 218//192
f 218//192 217//191 219//193
f 218//192 219//193 220//194
f 220//194 219//193 221//195
f 220//194 221//195 222//196
f 222//196 221//195 223//197
f 222//196 223//197 224//198
f 224//198 223//197 209//183
f 224//198 209//183 225//199
f 225//199 209//183 208//182
f 226//200 227//201 228//202
f 228//202 227//201 229//203
f 227//201 230//204 229//203
f 229//203 230//204 231//205
f 229//203 231//205 180//154
f 180//154 231//205 232//206
f 180//154 232//206 181//155
f 226//200 228//202 233//207
f 233//207 228//202 234//208
f 233//207 234//208 235//167
f 235//167 234//208 236//209
f 235//167 236//209 237//210
f 237//210 236//209 238//211
f 237//210 238//211 239//212
f 239//212 238//211 240//213
f 239//212 240//213 241//214
f 241//214 240//213 242//215
f 242//215 240//213 243//216
f 242//215 243//216 244//217
f 244//217 243//216 245//218
f 245//218 243//216 150//124
f 245//218 150//124 149//123
f 246//192 247//219 248//179
f 248//179 247//219 249//220
f 250//181 251//221 252//222
f 252//222 251//221 253//223
f 147//122 148//106 254//178
f 254//178 148//106 255//224
f 254//178 255//224 256//190
f 256//190 255//224 257//225
f 256//190 257//225 258//191
f 258//191 257//225 259//226
f 258//191 259//226 260//193
f 260//193 259//226 261//227
f 260//193 261//227 262//195
f 262//195 261//227 263//228
f 262//195 263//228 264//197
f 264//197 263//228 265//229
f 264//197 265//229 266//183
f 266//183 265//229 267//230
f 266//183 267//230 131//116
f 131//116 267//230 132//117
f 248//179 249//220 268//231
f 248//179 268//231 269//177
f 269//177 268//231 270//232
f 269//177 270//232 271//175
f 271//175 270//232 272//233
f 271//175 272//233 273//168
f 273//168 272//233 274//234
f 273//168 274//234 275//235
f 275//235 274//234 276//236
f 275//235 276//236 277//162
f 277//162 276//236 278//237
f 277//162 278//237 279//169
f 279//169 278//237 280//238
f 279//169 280//238 281//170
f 281//170 280//238 282//239
f 281//170 282//239 283//240
f 284//241 285//242 286//243
f 286//243 285//242 287//244
f 286//243 287//244 282//239
f 282//239 287//244 288//245
f 282//239 288//245 283//240
f 289//246 290//247 291//248
f 291//248 292//249 289//246
f 289//246 292//249 293//250
f 289//246 293//250 286//243
f 286//243 293//250 294//251
f 286//243 294//251 284//241
f 247//219 246//192 295//194
f 247//219 295//194 296//252
f 296//252 295//194 297//196
f 296//252 297//196 298//253
f 298//253 297//196 299//198
f 298//253 299//198 300//254
f 300//254 299//198 301//199
f 300//254 301//199 302//255
f 302//255 301//199 303//182
f 302//255 303//182 304//256
f 304//256 303//182 250//181
f 304//256 250//181 252//222
f 4//4 6//6 190//164
f 190//164 6//6 191//165
f 6//6 7//7 191//165
f 191//165 7//7 15//15
f 191//165 15//15 123//108
f 123//108 15//15 13//13
f 123//108 13//13 11//11
f 4//4 190//164 305//257
f 305//257 190//164 202//176
f 305//257 202//176 306//209
f 306//209 202//176 193//167
f 306//209 193//167 307//258
f 307//258 193//167 187//161
f 307//258 187//161 55//55
f 55//55 187//161 186//160
f 55//55 186//160 56//56
f 56//56 186//160 58//58
f 58//58 186//160 197//171
f 58//58 197//171 60//60
f 60//60 197//171 62//62
f 62//62 197//171 124//109
f 62//62 124//109 54//54
f 274//234 236//209 234//208
f 259//226 257//225 249//220
f 274//234 272//233 236//209
f 236//209 272//233 270//232
f 236//209 270//232 238//211
f 171//145 173//147 308//259
f 308//259 173//147 165//139
f 308//259 165//139 309//260
f 309//260 165//139 157//131
f 309//260 157//131 154//128
f 229//203 280//238 228//202
f 228//202 280//238 278//237
f 228//202 278//237 234//208
f 234//208 278//237 276//236
f 234//208 276//236 274//234
f 257//225 255//224 249//220
f 249//220 255//224 238//211
f 249//220 238//211 268//231
f 268//231 238//211 270//232
f 171//145 308//259 179//153
f 179//153 308//259 289//246
f 179//153 289//246 180//154
f 180//154 289//246 286//243
f 180//154 286//243 229//203
f 229//203 286//243 282//239
f 229//203 282//239 280//238
f 265//229 300//254 267//230
f 267//230 300//254 302//255
f 267//230 302//255 132//117
f 132//117 302//255 304//256
f 132//117 304//256 134//92
f 134//92 304//256 252//222
f 134//92 252//222 136//94
f 255//224 148//106 238//211
f 238//211 148//106 146//104
f 238//211 146//104 240//213
f 240//213 146//104 144//102
f 240//213 144//102 243//216
f 243//216 144//102 142//100
f 243//216 142//100 150//124
f 150//124 142//100 152//126
f 259//226 249//220 261//227
f 261//227 249//220 247//219
f 261//227 247//219 263//228
f 263//228 247//219 296//252
f 263//228 296//252 265//229
f 265//229 296//252 298//253
f 265//229 298//253 300//254
f 310//261 311//262 140//120
f 140//120 311//262 309//260
f 140//120 309//260 142//100
f 142//100 309//260 154//128
f 142//100 154//128 152//126
f 252//222 253//223 136//94
f 136//94 253//223 312//263
f 136//94 312//263 138//96
f 138//96 312//263 313//264
f 138//96 313//264 140//120
f 140//120 313//264 314//265
f 140//120 314//265 310//261
f 315//266 316//267 317//268
f 317//268 316//267 318//269
f 92//74 319//270 90//72
f 90//72 319//270 320//271
f 90//72 320//271 88//70
f 102//84 321//272 100//82
f 100//82 321//272 322//273
f 100//82 322//273 98//80
f 98//80 322//273 323//274
f 98//80 323//274 96//78
f 324//275 325//276 326//277
f 326//277 325//276 327//278
f 326//277 327//278 102//84
f 102//84 327//278 328//279
f 102//84 328//279 321//272
f 320//271 329//280 88//70
f 88//70 329//280 330//281
f 88//70 330//281 86//68
f 86//68 330//281 331//282
f 86//68 331//282 332//283
f 332//283 331//282 333//284
f 323//274 334//285 96//78
f 96//78 334//285 335//286
f 96//78 335//286 94//86
f 94//86 335//286 336//287
f 94//86 336//287 92//74
f 92//74 336//287 337//288
f 92//74 337//288 319//270
f 338//289 339//290 210//184
f 210//184 339//290 332//283
f 333//284 340//291 332//283
f 332//283 340//291 341//292
f 332//283 341//292 210//184
f 210//184 341//292 342//293
f 210//184 342//293 343//294
f 344//290 210//184 345//289
f 345//289 210//184 185//159
f 345//289 185//159 346//295
f 70//70 338//289 68//68
f 68//68 338//289 210//184
f 68//68 210//184 347//283
f 347//283 210//184 344//290
f 348//296 349//297 350//275
f 350//275 349//297 351//298
f 350//275 351//298 352//277
f 352//277 351//298 353//299
f 352//277 353//299 84//84
f 84//84 353//299 354//300
f 84//84 354//300 82//82
f 185//159 355//301 346//295
f 346//295 355//301 356//302
f 346//295 356//302 348//296
f 348//296 356//302 357//303
f 348//296 357//303 349//297
f 80//80 358//304 78//78
f 78//78 358//304 359//305
f 78//78 359//305 360//306
f 354//300 361//307 82//82
f 82//82 361//307 362//308
f 82//82 362//308 80//80
f 80//80 362//308 363//309
f 80//80 363//309 358//304
f 70//70 72//72 338//289
f 338//289 72//72 74//74
f 338//289 74//74 364//295
f 364//295 74//74 365//296
f 74//74 76//76 365//296
f 365//296 76//76 78//78
f 365//296 78//78 366//310
f 366//310 78//78 360//306
f 366//310 317//268 365//296
f 365//296 317//268 318//269
f 365//296 318//269 324//275
f 324//275 318//269 367//311
f 324//275 367//311 325//276
f 87//69 368//312 89//71
f 89//71 368//312 369//313
f 89//71 369//313 91//73
f 370//314 371//315 87//69
f 87//69 371//315 372//316
f 87//69 372//316 368//312
f 73//73 373//317 75//75
f 75//75 373//317 77//77
f 101//83 374//318 103//85
f 103//85 374//318 375//319
f 103//85 375//319 376//320
f 376//320 375//319 377//321
f 376//320 377//321 378//322
f 95//87 379//323 97//79
f 97//79 379//323 380//324
f 97//79 380//324 99//88
f 99//88 380//324 381//325
f 99//88 381//325 101//83
f 101//83 381//325 382//326
f 101//83 382//326 374//318
f 83//83 81//81 373//317
f 373//317 81//81 79//79
f 373//317 79//79 77//77
f 383//327 384//328 370//314
f 370//314 384//328 385//329
f 370//314 385//329 371//315
f 386//314 3//3 69//69
f 69//69 3//3 31//31
f 69//69 31//31 71//71
f 71//71 31//31 66//66
f 290//247 289//246 387//330
f 387//330 289//246 71//71
f 387//330 71//71 388//331
f 388//331 71//71 66//66
f 369//313 389//332 91//73
f 91//73 389//332 390//333
f 91//73 390//333 93//75
f 93//75 390//333 391//334
f 93//75 391//334 95//87
f 95//87 391//334 392//335
f 95//87 392//335 379//323
f 383//327 373//317 384//328
f 384//328 373//317 73//73
f 384//328 73//73 393//336
f 393//336 73//73 71//71
f 393//336 71//71 308//259
f 308//259 71//71 289//246
f 394//337 395//338 396//339
f 396//339 395//338 397//340
f 396//339 397//340 398//317
f 398//317 397//340 189//163
f 398//317 189//163 399//327
f 399//327 189//163 200//174
f 399//327 200//174 386//314
f 386//314 200//174 47//47
f 386//314 47//47 3//3
f 315//266 400//341 401//337
f 402//322 403//342 394//337
f 394//337 403//342 404//343
f 394//337 404//343 395//338
f 373//317 405//344 83//83
f 83//83 405//344 401//337
f 83//83 401//337 406//345
f 406//345 401//337 400//341
f 406//345 407//346 83//83
f 83//83 407//346 408//347
f 83//83 408//347 409//348
f 377//321 410//349 378//322
f 378//322 410//349 411//350
f 378//322 411//350 401//337
f 401//337 411//350 316//267
f 401//337 316//267 315//266
f 409//348 412//351 83//83
f 83//83 412//351 413//352
f 83//83 413//352 85//85
f 85//85 413//352 414//353
f 85//85 414//353 415//320
f 415//320 414//353 416//354
f 415//320 416//354 402//322
f 402//322 416//354 417//355
f 402//322 417//355 403//342
f 205//179 218//192 418//220
f 418//220 218//192 419//219
f 206//180 5//5 207//181
f 207//181 5//5 420//222
f 120//105 121//106 204//178
f 204//178 121//106 421//224
f 204//178 421//224 216//190
f 216//190 421//224 422//225
f 216//190 422//225 217//191
f 217//191 422//225 423//226
f 217//191 423//226 219//193
f 219//193 423//226 424//227
f 219//193 424//227 221//195
f 221//195 424//227 425//228
f 221//195 425//228 223//197
f 223//197 425//228 426//229
f 223//197 426//229 209//183
f 209//183 426//229 427//230
f 209//183 427//230 104//89
f 104//89 427//230 105//90
f 199//173 64//64 200//174
f 200//174 64//64 53//53
f 200//174 53//53 51//51
f 51//51 50//50 200//174
f 200//174 50//50 45//45
f 200//174 45//45 47//47
f 59//59 61//61 199//173
f 199//173 61//61 63//63
f 199//173 63//63 64//64
f 59//59 199//173 57//57
f 57//57 199//173 198//172
f 57//57 198//172 428//356
f 428//356 198//172 196//170
f 428//356 196//170 429//238
f 429//238 196//170 195//169
f 429//238 195//169 430//237
f 430//237 195//169 188//162
f 430//237 188//162 431//236
f 431//236 188//162 192//166
f 431//236 192//166 432//234
f 432//234 192//166 194//168
f 432//234 194//168 433//233
f 433//233 194//168 201//175
f 433//233 201//175 434//232
f 434//232 201//175 203//177
f 434//232 203//177 435//231
f 435//231 203//177 205//179
f 435//231 205//179 418//220
f 419//219 218//192 220//194
f 419//219 220//194 436//252
f 436//252 220//194 222//196
f 436//252 222//196 437//253
f 437//253 222//196 224//198
f 437//253 224//198 438//254
f 438//254 224//198 225//199
f 438//254 225//199 439//255
f 439//255 225//199 208//182
f 439//255 208//182 440//256
f 440//256 208//182 207//181
f 440//256 207//181 420//222
f 102//84 103//85 326//277
f 326//277 103//85 376//320
f 326//277 376//320 324//275
f 324//275 376//320 378//322
f 324//275 378//322 365//296
f 365//296 378//322 401//337
f 365//296 401//337 364//295
f 364//295 401//337 405//344
f 364//295 405//344 338//289
f 338//289 405//344 373//317
f 338//289 373//317 339//290
f 339//290 373//317 383//327
f 339//290 383//327 332//283
f 332//283 383//327 370//314
f 332//283 370//314 86//68
f 86//68 370//314 87//69
f 84//84 85//85 352//277
f 352//277 85//85 415//320
f 352//277 415//320 350//275
f 350//275 415//320 402//322
f 350//275 402//322 348//296
f 348//296 402//322 394//337
f 348//296 394//337 346//295
f 346//295 394//337 396//339
f 346//295 396//339 345//289
f 345//289 396//339 398//317
f 345//289 398//317 344//290
f 344//290 398//317 399//327
f 344//290 399//327 347//283
f 347//283 399//327 386//314
f 347//283 386//314 68//68
f 68//68 386//314 69//69
f 432//234 306//209 307//258
f 55//55 57//57 428//356
f 432//234 433//233 306//209
f 306//209 433//233 434//232
f 306//209 434//232 305//257
f 428//356 429//238 55//55
f 55//55 429//238 430//237
f 55//55 430//237 307//258
f 307//258 430//237 431//236
f 307//258 431//236 432//234
f 426//229 425//228 436//252
f 436//252 425//228 419//219
f 419//219 425//228 424//227
f 419//219 424//227 418//220
f 418//220 424//227 423//226
f 418//220 423//226 422//225
f 422//225 421//224 418//220
f 418//220 421//224 305//257
f 418//220 305//257 435//231
f 435//231 305//257 434//232
f 4//4 115//100 5//5
f 5//5 115//100 113//98
f 421//224 121//106 305//257
f 305//257 121//106 119//104
f 305//257 119//104 4//4
f 4//4 119//104 117//102
f 4//4 117//102 115//100
f 436//252 437//253 426//229
f 426//229 437//253 438//254
f 426//229 438//254 427//230
f 427//230 438//254 439//255
f 427//230 439//255 105//90
f 105//90 439//255 440//256
f 105//90 440//256 107//92
f 107//92 440//256 420//222
f 107//92 420//222 109//94
f 109//94 420//222 5//5
f 109//94 5//5 111//96
f 111//96 5//5 113//98
f 145//103 147//122 277//162
f 283//240 288//245 226//200
f 256//190 269//177 271//175
f 233//207 279//169 226//200
f 226//200 279//169 281//170
f 226//200 281//170 283//240
f 141//99 143//121 235//167
f 235//167 143//121 145//103
f 235//167 145//103 233//207
f 233//207 145//103 277//162
f 233//207 277//162 279//169
f 256//190 271//175 254//178
f 254//178 271//175 273//168
f 254//178 273//168 147//122
f 147//122 273//168 275//235
f 147//122 275//235 277//162
f 269//177 256//190 248//179
f 248//179 256//190 258//191
f 248//179 258//191 246//192
f 246//192 258//191 260//193
f 246//192 260//193 295//194
f 295//194 260//193 262//195
f 295//194 262//195 297//196
f 297//196 262//195 264//197
f 297//196 264//197 299//198
f 299//198 264//197 266//183
f 299//198 266//183 301//199
f 301//199 266//183 303//182
f 303//182 266//183 131//116
f 303//182 131//116 250//181
f 250//181 131//116 133//118
f 250//181 133//118 251//221
f 251//221 133//118 135//119
f 251//221 135//119 137//95
f 239//212 251//221 237//210
f 237//210 251//221 137//95
f 237//210 137//95 235//167
f 235//167 137//95 139//97
f 235//167 139//97 141//99
f 408//347 358//304 363//309
f 408//347 363//309 409//348
f 409//348 363//309 362//308
f 409//348 362//308 412//351
f 412//351 362//308 361//307
f 412//351 361//307 413//352
f 413//352 361//307 354//300
f 413//352 354//300 414//353
f 354//300 353//299 414//353
f 414//353 353//299 416//354
f 315//266 317//268 400//341
f 400//341 317//268 366//310
f 400//341 366//310 406//345
f 406//345 366//310 360//306
f 406//345 360//306 407//346
f 407//346 360//306 359//305
f 407//346 359//305 408//347
f 408//347 359//305 358//304
f 368//312 330//281 329//280
f 368//312 329//280 369//313
f 369//313 329//280 320//271
f 369//313 320//271 389//332
f 389//332 320//271 319//270
f 389//332 319//270 390//333
f 390//333 319//270 337//288
f 390//333 337//288 391//334
f 391//334 337//288 336//287
f 391//334 336//287 392//335
f 392//335 336//287 335//286
f 392//335 335//286 379//323
f 379//323 335//286 334//285
f 379//323 334//285 380//324
f 380//324 334//285 323//274
f 380//324 323//274 381//325
f 381//325 323//274 322//273
f 381//325 322//273 382//326
f 382//326 322//273 321//272
f 382//326 321//272 374//318
f 374//318 321//272 328//279
f 374//318 328//279 375//319
f 375//319 328//279 327//278
f 375//319 327//278 377//321
f 377//321 327//278 325//276
f 377//321 325//276 410//349
f 410//349 325//276 411//350
f 411//350 325//276 367//311
f 411//350 367//311 316//267
f 316//267 367//311 318//269
f 416//354 353//299 351//298
f 416//354 351//298 417//355
f 417//355 351//298 349//297
f 417//355 349//297 403//342
f 403//342 349//297 357//303
f 403//342 357//303 404//343
f 404//343 357//303 356//302
f 404//343 356//302 395//338
f 395//338 356//302 355//301
f 395//338 355//301 397//340
f 397//340 355//301 185//159
f 397//340 185//159 189//163
f 308//259 309//260 441//357
f 308//259 441//357 393//336
f 330//281 368//312 331//282
f 331//282 368//312 372//316
f 331//282 372//316 333//284
f 333//284 372//316 371//315
f 333//284 371//315 340//291
f 340//291 371//315 385//329
f 340//291 385//329 341//292
f 341//292 385//329 384//328
f 341//292 384//328 342//293
f 342//293 384//328 393//336
f 342//293 393//336 343//294
f 343//294 393//336 441//357
f 156//130 155//129 442//358
f 442//358 155//129 443//359
f 175//149 174//148 387//330
f 387//330 174//148 172//146
f 387//330 172//146 290//247
f 290//247 172//146 184//158
f 290//247 184//158 291//248
f 291//248 184//158 183//157
f 291//248 183//157 292//249
f 292//249 183//157 293//250
f 293//250 183//157 182//156
f 293//250 182//156 294//251
f 294//251 182//156 284//241
f 284//241 182//156 181//155
f 284//241 181//155 285//242
f 181//155 232//206 285//242
f 285//242 232//206 231//205
f 285//242 231//205 287//244
f 287//244 231//205 230//204
f 287//244 230//204 288//245
f 288//245 230//204 227//201
f 288//245 227//201 226//200
f 158//132 167//141 444//360
f 158//132 444//360 159//133
f 167//141 166//140 444//360
f 444//360 166//140 164//138
f 444//360 164//138 163//137
f 170//144 169//143 388//331
f 388//331 169//143 168//142
f 168//142 178//152 388//331
f 388//331 178//152 177//151
f 388//331 177//151 387//330
f 387//330 177//151 176//150
f 387//330 176//150 175//149
f 444//360 445//361 159//133
f 159//133 445//361 446//362
f 159//133 446//362 160//134
f 160//134 446//362 161//135
f 443//359 155//129 446//362
f 446//362 155//129 162//136
f 446//362 162//136 161//135
f 447//363 151//125 442//358
f 442//358 151//125 153//127
f 442//358 153//127 156//130
f 448//364 244//217 245//218
f 447//363 449//365 151//125
f 151//125 449//365 450//366
f 151//125 450//366 149//123
f 149//123 450//366 451//367
f 149//123 451//367 245//218
f 245//218 451//367 452//368
f 245//218 452//368 448//364
f 242//215 251//221 241//214
f 241//214 251//221 239//212
f 244//217 448//364 242//215
f 242//215 448//364 453//369
f 242//215 453//369 251//221
f 388//331 66//66 65//65
f 163//137 170//144 444//360
f 444//360 170//144 388//331
f 444//360 388//331 454//370
f 454//370 388//331 65//65
f 17//17 5//5 206//180
f 17//17 206//180 16//16
f 16//16 206//180 215//189
f 16//16 215//189 14//14
f 14//14 215//189 214//188
f 14//14 214//188 12//12
f 21//21 19//19 213//187
f 19//19 18//18 213//187
f 213//187 18//18 8//8
f 213//187 8//8 214//188
f 214//188 8//8 10//10
f 214//188 10//10 12//12
f 65//65 67//67 212//186
f 446//362 445//361 310//261
f 310//261 445//361 444//360
f 310//261 444//360 454//370
f 67//67 36//36 212//186
f 212//186 36//36 41//41
f 212//186 41//41 42//42
f 42//42 26//26 212//186
f 212//186 26//26 24//24
f 212//186 24//24 213//187
f 213//187 24//24 23//23
f 213//187 23//23 21//21
f 449//365 447//363 314//265
f 314//265 447//363 442//358
f 314//265 442//358 310//261
f 310//261 442//358 443//359
f 310//261 443//359 446//362
f 313//264 451//367 314//265
f 314//265 451//367 450//366
f 314//265 450//366 449//365
f 312//263 253//223 251//221
f 251//221 453//369 312//263
f 312//263 453//369 448//364
f 312//263 448//364 313//264
f 313//264 448//364 452//368
f 313//264 452//368 451//367
f 343//294 441//357 210//184
f 210//184 441//357 309//260
f 210//184 309//260 211//185
f 211//185 309//260 311//262
f 211//185 311//262 212//186
f 212//186 311//262 310//261
f 212//186 310//261 65//65
f 65//65 310//261 454//370
