# Blender 5.2.1 LTS
# www.blender.org
o right_thumb_1
v -0.001429 0.000456 -0.008472
v -0.001365 0.000621 -0.008384
v -0.005760 0.001811 -0.008386
v 0.000845 -0.001239 -0.008700
v 0.000817 -0.001258 -0.008700
v 0.004076 -0.002144 -0.008700
v 0.005003 0.000299 -0.006100
v -0.004560 0.002897 -0.006100
v 0.004988 0.000244 -0.006641
v -0.004579 0.002872 -0.006488
v -0.004599 0.002848 -0.006641
v 0.004921 -0.000005 -0.007341
v 0.001082 0.001039 -0.007337
v 0.001180 0.000926 -0.007480
v 0.001329 0.000696 -0.007737
v 0.001356 0.000642 -0.007791
v 0.004846 -0.000280 -0.007761
v 0.001442 0.000414 -0.007997
v 0.004802 -0.000436 -0.007939
v 0.001490 0.000172 -0.008183
v 0.004767 -0.000554 -0.008055
v 0.004665 -0.000860 -0.008296
v 0.001496 -0.000115 -0.008362
v 0.004612 -0.001004 -0.008385
v 0.004538 -0.001194 -0.008484
v 0.001448 -0.000393 -0.008500
v 0.004387 -0.001541 -0.008615
v 0.001356 -0.000641 -0.008593
v 0.004216 -0.001888 -0.008685
v 0.001218 -0.000876 -0.008656
v 0.001046 -0.001075 -0.008689
v -0.000200 0.001487 -0.007142
v 0.000059 0.001499 -0.006936
v -0.004637 0.002802 -0.006856
v -0.000470 0.001425 -0.007400
v -0.000250 0.001479 -0.007187
v 0.000251 0.001479 -0.006839
v 0.000393 0.001448 -0.006814
v 0.000411 0.001443 -0.006815
v 0.000575 0.001385 -0.006857
v 0.000746 0.001301 -0.006967
v 0.000964 0.001150 -0.007187
v 0.000972 0.001143 -0.007197
v -0.004735 0.002689 -0.007204
v -0.004787 0.002632 -0.007342
v -0.000728 0.001311 -0.007667
v -0.004882 0.002531 -0.007543
v -0.000965 0.001148 -0.007921
v -0.000844 0.001240 -0.007790
v -0.005069 0.002349 -0.007834
v -0.005157 0.002268 -0.007940
v -0.001157 0.000955 -0.008135
v -0.001318 0.000717 -0.008324
v -0.005569 0.001941 -0.008283
v -0.005300 0.002147 -0.008083
v -0.006620 0.001368 -0.008633
v -0.001496 0.000113 -0.008599
v -0.006215 0.001551 -0.008551
v -0.001448 0.000393 -0.008500
v -0.006013 0.001659 -0.008490
v -0.005885 0.001733 -0.008442
v -0.007058 0.001217 -0.008680
v -0.001446 -0.000399 -0.008689
v -0.001494 -0.000139 -0.008656
v -0.001341 -0.000672 -0.008700
v -0.001356 -0.000641 -0.008700
v -0.007741 0.001067 -0.008700
v -0.007557 0.001098 -0.008699
v -0.001175 0.013791 -0.006500
v 0.007992 0.011300 -0.006500
v -0.001205 0.013680 -0.005926
v 0.007962 0.011190 -0.005926
v -0.001291 0.013367 -0.005439
v 0.007877 0.010876 -0.005439
v -0.001418 0.012897 -0.005114
v 0.007750 0.010406 -0.005114
v -0.001569 0.012343 -0.005000
v 0.007599 0.009852 -0.005000
v -0.001719 0.011789 -0.005114
v 0.007449 0.009298 -0.005114
v -0.001847 0.011320 -0.005439
v 0.007321 0.008829 -0.005439
v -0.001932 0.011006 -0.005926
v 0.007236 0.008515 -0.005926
v -0.001962 0.010896 -0.006500
v 0.007206 0.008405 -0.006500
v -0.001786 0.011543 0.002193
v 0.007382 0.009052 0.002193
v -0.001816 0.011433 0.002767
v 0.007352 0.008942 0.002767
v -0.001901 0.011119 0.003254
v 0.007266 0.008628 0.003254
v -0.002029 0.010649 0.003579
v 0.007139 0.008158 0.003579
v -0.002179 0.010095 0.003693
v 0.006988 0.007604 0.003693
v -0.002330 0.009541 0.003579
v 0.006838 0.007050 0.003579
v -0.002457 0.009072 0.003254
v 0.006710 0.006581 0.003254
v -0.002543 0.008758 0.002767
v 0.006625 0.006267 0.002767
v -0.002573 0.008648 0.002193
v 0.006595 0.006157 0.002193
v -0.004075 -0.003556 -0.011500
v -0.004075 -0.003556 -0.008700
v -0.004035 -0.002972 -0.011500
v -0.004035 -0.002972 -0.008700
v -0.004221 -0.002417 -0.011500
v -0.004221 -0.002417 -0.008700
v -0.004605 -0.001976 -0.011500
v -0.004605 -0.001976 -0.008700
v -0.005129 -0.001715 -0.011500
v -0.005129 -0.001715 -0.008700
v -0.005713 -0.001675 -0.011500
v -0.005713 -0.001675 -0.008700
v -0.006268 -0.001861 -0.011500
v -0.006268 -0.001861 -0.008700
v -0.006709 -0.002245 -0.011500
v -0.006709 -0.002245 -0.008700
v -0.006970 -0.002769 -0.011500
v -0.006970 -0.002769 -0.008700
v 0.001500 0.000014 -0.011500
v 0.001448 -0.000393 -0.011500
v -0.001286 0.000771 -0.011500
v -0.001448 0.000393 -0.011500
v -0.000845 0.001239 -0.011500
v -0.000249 0.001479 -0.011500
v 0.000393 0.001448 -0.011500
v 0.000963 0.001150 -0.011500
v 0.001356 0.000641 -0.011500
v -0.004075 -0.003556 -0.003500
v -0.004075 -0.003556 0.000000
v -0.004035 -0.002972 -0.003500
v -0.004035 -0.002972 0.000000
v -0.004221 -0.002417 -0.003500
v -0.004221 -0.002417 0.000000
v -0.004605 -0.001976 -0.003500
v -0.004605 -0.001976 0.000000
v -0.005129 -0.001715 -0.003500
v -0.005129 -0.001715 0.000000
v -0.005713 -0.001675 -0.003500
v -0.005713 -0.001675 0.000000
v -0.006268 -0.001861 -0.003500
v -0.006268 -0.001861 0.000000
v -0.006709 -0.002245 -0.003500
v -0.006709 -0.002245 0.000000
v -0.006970 -0.002769 -0.003500
v -0.006970 -0.002769 0.000000
v 0.001500 0.000014 0.000000
v 0.001481 0.000235 -0.004063
v 0.001499 -0.000052 -0.003874
v 0.001448 -0.000393 -0.003700
v 0.001448 -0.000393 0.000000
v 0.001463 -0.000333 -0.003727
v 0.001492 -0.000155 -0.003816
v 0.001415 0.000499 -0.004276
v 0.001356 0.000641 0.000000
v 0.001355 0.000642 -0.004410
v 0.001294 0.000759 -0.004529
v 0.000963 0.001150 0.000000
v 0.001125 0.000992 -0.004802
v 0.000393 0.001448 0.000000
v 0.000394 0.001447 -0.005386
v 0.000532 0.001403 -0.005361
v 0.000708 0.001323 -0.005264
v 0.000923 0.001183 -0.005061
v 0.000964 0.001149 -0.005013
v -0.000249 0.001479 0.000000
v -0.000249 0.001479 -0.005013
v 0.000016 0.001500 -0.005234
v 0.000205 0.001486 -0.005343
v 0.000376 0.001452 -0.005385
v -0.000845 0.001239 0.000000
v -0.000844 0.001240 -0.004409
v -0.000793 0.001273 -0.004464
v -0.000549 0.001396 -0.004719
v -0.000407 0.001444 -0.004863
v -0.000260 0.001477 -0.005003
v -0.001286 0.000771 0.000000
v -0.001448 0.000393 0.000000
v -0.001448 0.000393 -0.003700
v -0.001348 0.000658 -0.003838
v -0.001198 0.000902 -0.004017
v -0.001034 0.001087 -0.004203
v -0.000151 -0.005705 -0.011500
v -0.000393 -0.001448 -0.011500
v 0.000249 -0.001479 -0.011500
v 0.007271 0.008646 -0.011500
v 0.004846 -0.000280 -0.011500
v -0.001485 -0.006061 -0.011500
v -0.002860 -0.006183 -0.011500
v -0.000963 -0.001150 -0.011500
v 0.001286 -0.000771 -0.011500
v 0.003218 -0.003368 -0.011500
v 0.000845 -0.001239 -0.011500
v 0.002236 -0.004338 -0.011500
v 0.001102 -0.005125 -0.011500
v -0.001896 0.011137 -0.011500
v -0.003645 0.004703 -0.011500
v 0.004614 -0.000998 -0.011500
v 0.004019 -0.002243 -0.011500
v -0.006824 -0.003908 -0.011500
v -0.006440 -0.004350 -0.011500
v -0.007142 -0.005207 -0.011500
v -0.006419 -0.005510 -0.011500
v -0.005916 -0.004610 -0.011500
v -0.004972 -0.005903 -0.011500
v -0.005332 -0.004651 -0.011500
v -0.004777 -0.004464 -0.011500
v -0.004336 -0.004080 -0.011500
v -0.004236 -0.006066 -0.011500
v -0.007761 -0.004729 -0.011500
v -0.008236 -0.004106 -0.011500
v -0.007010 -0.003353 -0.011500
v -0.008533 -0.003381 -0.011500
v -0.008633 -0.002604 -0.011500
v -0.008528 -0.001828 -0.011500
v -0.001356 -0.000641 -0.011500
v -0.001500 -0.000014 -0.011500
v -0.004437 0.003058 -0.011500
v -0.003904 0.003975 -0.011500
v -0.007741 0.001067 -0.011500
v -0.006988 0.001238 -0.011500
v -0.006014 0.001658 -0.011500
v -0.005151 0.002274 -0.011500
v -0.001341 -0.000672 -0.003500
v -0.001356 -0.000641 -0.003500
v -0.001356 -0.000641 0.000000
v -0.001500 -0.000014 0.000000
v -0.001446 -0.000398 -0.003511
v -0.001493 -0.000140 -0.003544
v -0.001494 0.000133 -0.003607
v -0.000963 -0.001150 -0.003500
v -0.000963 -0.001150 0.000000
v -0.000393 -0.001448 -0.003500
v -0.000393 -0.001448 0.000000
v 0.000249 -0.001479 -0.003500
v 0.000249 -0.001479 0.000000
v 0.000817 -0.001258 -0.003500
v 0.000845 -0.001239 0.000000
v 0.000845 -0.001239 -0.003500
v 0.001046 -0.001076 -0.003511
v 0.001286 -0.000771 0.000000
v 0.001219 -0.000875 -0.003544
v 0.001347 -0.000659 -0.003601
v -0.006419 -0.005510 0.000000
v -0.006419 -0.005510 -0.003500
v -0.004972 -0.005903 0.000000
v -0.004972 -0.005903 -0.003500
v -0.007741 0.001067 -0.003500
v -0.008528 -0.001828 -0.003500
v -0.007741 0.001067 0.000000
v -0.008528 -0.001828 0.000000
v -0.007010 -0.003353 -0.003500
v -0.007010 -0.003353 0.000000
v -0.006824 -0.003908 -0.003500
v -0.006824 -0.003908 0.000000
v -0.006440 -0.004350 -0.003500
v -0.006440 -0.004350 0.000000
v -0.005916 -0.004610 -0.003500
v -0.005916 -0.004610 0.000000
v -0.005332 -0.004651 -0.003500
v -0.005332 -0.004651 0.000000
v -0.004777 -0.004464 -0.003500
v -0.004777 -0.004464 0.000000
v -0.004336 -0.004080 -0.003500
v -0.004336 -0.004080 0.000000
v 0.004614 -0.000998 0.000000
v 0.004564 -0.001129 -0.003747
v 0.004846 -0.000280 0.000000
v 0.004612 -0.001004 -0.003815
v 0.004676 -0.000828 -0.003926
v 0.004768 -0.000546 -0.004153
v 0.004802 -0.000436 -0.004262
v 0.004846 -0.000280 -0.004439
v 0.004247 -0.001827 -0.003524
v 0.004333 -0.001654 -0.003557
v 0.004417 -0.001474 -0.003606
v 0.004076 -0.002144 -0.003500
v 0.004019 -0.002243 0.000000
v 0.004019 -0.002243 -0.003500
v 0.003218 -0.003368 0.000000
v 0.003218 -0.003368 -0.003500
v 0.002236 -0.004338 0.000000
v 0.002236 -0.004338 -0.003500
v 0.001102 -0.005125 0.000000
v 0.001102 -0.005125 -0.003500
v -0.000151 -0.005705 0.000000
v -0.000151 -0.005705 -0.003500
v -0.001485 -0.006061 0.000000
v -0.001485 -0.006061 -0.003500
v -0.002860 -0.006183 0.000000
v -0.002860 -0.006183 -0.003500
v -0.004236 -0.006066 0.000000
v -0.004236 -0.006066 -0.003500
v -0.008633 -0.002604 -0.003500
v -0.008633 -0.002604 0.000000
v -0.008533 -0.003381 -0.003500
v -0.008533 -0.003381 0.000000
v -0.008236 -0.004106 -0.003500
v -0.008236 -0.004106 0.000000
v -0.007761 -0.004729 -0.003500
v -0.007761 -0.004729 0.000000
v -0.007142 -0.005207 -0.003500
v -0.007142 -0.005207 0.000000
v 0.000249 -0.001479 -0.008700
v -0.000393 -0.001448 -0.008700
v -0.000963 -0.001150 -0.008700
v -0.003803 0.004218 0.000000
v 0.005390 0.001721 0.000000
v -0.003904 0.003975 0.000000
v -0.004437 0.003058 0.000000
v -0.005151 0.002274 0.000000
v -0.006014 0.001658 0.000000
v -0.006988 0.001238 0.000000
v 0.007599 0.009852 -0.000445
v 0.007599 0.009852 -0.002192
v -0.001569 0.012343 -0.000445
v -0.001569 0.012343 -0.002192
v -0.002543 0.008758 0.001619
v -0.003123 0.006622 0.001338
v -0.003032 0.006957 0.002046
v -0.002998 0.007082 0.002607
v -0.002937 0.007307 0.003447
v -0.002179 0.010095 0.000693
v -0.002330 0.009541 0.000808
v -0.001992 0.010783 0.005262
v -0.001779 0.011569 0.004948
v -0.001596 0.012242 0.004423
v -0.002818 0.007746 0.004192
v -0.002649 0.008365 0.004783
v -0.002445 0.009117 0.005176
v -0.002220 0.009945 0.005339
v -0.002457 0.009072 0.001133
v -0.003432 0.005486 0.000306
v -0.003259 0.006120 0.000744
v -0.001458 0.012750 0.003727
v -0.001375 0.013055 0.002913
v -0.001354 0.013132 0.002044
v -0.001816 0.011433 0.001619
v -0.001397 0.012976 0.001187
v -0.001901 0.011119 0.001133
v -0.003628 0.004764 0.000055
v -0.003645 0.004703 0.000043
v -0.001548 0.012420 -0.002752
v -0.002029 0.010649 0.000808
v -0.001932 0.011006 -0.007074
v -0.001847 0.011320 -0.007561
v -0.001719 0.011789 -0.007886
v -0.001625 0.012136 -0.011364
v -0.001569 0.012343 -0.008000
v -0.001372 0.013067 -0.010964
v -0.001418 0.012897 -0.007886
v -0.001486 0.012646 -0.003268
v -0.001390 0.013002 -0.003697
v -0.001265 0.013460 -0.004006
v -0.001094 0.014090 -0.004430
v -0.001291 0.013367 -0.007561
v -0.000988 0.014480 -0.009500
v -0.001155 0.013866 -0.010328
v -0.001499 0.012599 0.000406
v -0.001551 0.012408 0.000001
v -0.000961 0.014580 -0.005020
v -0.000877 0.014891 -0.005729
v -0.000848 0.014997 -0.006500
v -0.001205 0.013680 -0.007074
v -0.000848 0.014997 -0.007500
v -0.000883 0.014865 -0.008535
v 0.007321 0.008829 -0.007561
v 0.007236 0.008515 -0.007074
v 0.006170 0.004591 0.002607
v 0.006136 0.004466 0.002046
v 0.006625 0.006267 0.001619
v 0.006045 0.004131 0.001338
v 0.005908 0.003629 0.000744
v 0.007449 0.009298 -0.007886
v 0.007599 0.009852 -0.008000
v 0.006988 0.007604 0.000693
v 0.006838 0.007050 0.000808
v 0.006518 0.005874 0.004783
v 0.006350 0.005255 0.004192
v 0.006231 0.004816 0.003447
v 0.007175 0.008293 0.005262
v 0.006947 0.007454 0.005339
v 0.006723 0.006627 0.005176
v 0.007750 0.010406 -0.007886
v 0.008180 0.011989 -0.009500
v 0.007877 0.010876 -0.007561
v 0.008284 0.012375 -0.008535
v 0.007962 0.011190 -0.007074
v 0.008320 0.012506 -0.007500
v 0.008320 0.012506 -0.006500
v 0.007543 0.009645 -0.011364
v 0.007796 0.010576 -0.010964
v 0.008013 0.011375 -0.010328
v 0.007266 0.008628 0.001133
v 0.007668 0.010108 0.000406
v 0.007352 0.008942 0.001619
v 0.007771 0.010485 0.001187
v 0.004921 -0.000005 -0.004859
v 0.005540 0.002273 0.000055
v 0.005736 0.002995 0.000306
v 0.007813 0.010641 0.002044
v 0.007792 0.010564 0.002913
v 0.007710 0.010260 0.003727
v 0.007572 0.009751 0.004423
v 0.007389 0.009079 0.004948
v 0.007139 0.008158 0.000808
v 0.006710 0.006581 0.001133
v 0.004988 0.000244 -0.005559
v 0.007681 0.010155 -0.003268
v 0.007620 0.009930 -0.002752
v 0.007617 0.009918 0.000001
v 0.008291 0.012400 -0.005729
v 0.008207 0.012089 -0.005020
v 0.008074 0.011599 -0.004430
v 0.007903 0.010970 -0.004006
v 0.007778 0.010512 -0.003697
v -0.006419 -0.005510 -0.008700
v -0.004972 -0.005903 -0.008700
v -0.008528 -0.001828 -0.008700
v -0.007010 -0.003353 -0.008700
v -0.006824 -0.003908 -0.008700
v -0.006440 -0.004350 -0.008700
v -0.005916 -0.004610 -0.008700
v -0.005332 -0.004651 -0.008700
v -0.004777 -0.004464 -0.008700
v -0.004336 -0.004080 -0.008700
v 0.004019 -0.002243 -0.008700
v 0.003218 -0.003368 -0.008700
v 0.002236 -0.004338 -0.008700
v 0.001102 -0.005125 -0.008700
v -0.000151 -0.005705 -0.008700
v -0.001485 -0.006061 -0.008700
v -0.002860 -0.006183 -0.008700
v -0.004236 -0.006066 -0.008700
v -0.008633 -0.002604 -0.008700
v -0.008533 -0.003381 -0.008700
v -0.008236 -0.004106 -0.008700
v -0.007761 -0.004729 -0.008700
v -0.007142 -0.005207 -0.008700
v -0.003673 0.004602 0.000027
v -0.004576 0.002876 -0.005744
v -0.004598 0.002848 -0.005559
v -0.004635 0.002803 -0.005351
v -0.004786 0.002631 -0.004858
v -0.004738 0.002683 -0.004981
v -0.004888 0.002523 -0.004643
v -0.005761 0.001811 -0.003813
v -0.005597 0.001921 -0.003900
v -0.005312 0.002137 -0.004106
v -0.005157 0.002269 -0.004260
v -0.005086 0.002332 -0.004344
v -0.005944 0.001698 -0.003735
v -0.006289 0.001514 -0.003630
v -0.006700 0.001337 -0.003555
v -0.007204 0.001176 -0.003512
vn 0.5754 -0.5157 0.6348
vn 0.5337 -0.5979 0.5980
vn -0.5707 0.3217 0.7555
vn -0.4249 0.5452 0.7227
vn -0.3140 0.6039 0.7326
vn 0.6167 -0.3719 0.6938
vn 0.5267 -0.8500 0.0003
vn -0.9547 -0.2974 0.0033
vn 0.5365 -0.8299 0.1529
vn -0.9499 -0.2909 0.1146
vn -0.9418 -0.2699 0.2005
vn 0.5508 -0.7745 0.3110
vn -0.4948 -0.8320 0.2509
vn -0.5403 -0.7884 0.2940
vn -0.5934 -0.7260 0.3475
vn -0.6289 -0.6745 0.3866
vn 0.5565 -0.7136 0.4257
vn -0.6790 -0.5891 0.4380
vn 0.5578 -0.6733 0.4853
vn -0.7219 -0.4664 0.5112
vn 0.5677 -0.6377 0.5207
vn 0.5745 -0.5928 0.5644
vn -0.7534 -0.2944 0.5880
vn 0.5740 -0.5577 0.5996
vn 0.5876 -0.5204 0.6196
vn -0.7482 -0.1017 0.6556
vn 0.6056 -0.4702 0.6420
vn -0.7021 0.1029 0.7046
vn 0.6197 -0.4106 0.6689
vn -0.6224 0.2860 0.7286
vn -0.5065 0.4480 0.7367
vn -0.0934 -0.9755 0.1991
vn -0.1617 -0.9714 0.1741
vn -0.9330 -0.2340 0.2733
vn 0.0298 -0.9656 0.2584
vn -0.0297 -0.9752 0.2195
vn -0.2174 -0.9642 0.1516
vn -0.2508 -0.9593 0.1302
vn -0.2758 -0.9517 0.1346
vn -0.3103 -0.9378 0.1561
vn -0.3657 -0.9133 0.1794
vn -0.4242 -0.8819 0.2059
vn -0.4677 -0.8546 0.2257
vn -0.9088 -0.1916 0.3707
vn -0.8830 -0.1420 0.4474
vn 0.1169 -0.9381 0.3260
vn -0.8532 -0.0792 0.5156
vn 0.2673 -0.8698 0.4148
vn 0.2031 -0.9068 0.3695
vn -0.8061 -0.0037 0.5918
vn -0.7616 0.0819 0.6428
vn 0.3565 -0.7948 0.4911
vn 0.4719 -0.6855 0.5544
vn -0.6353 0.2524 0.7299
vn -0.7124 0.1582 0.6837
vn -0.3203 0.5618 0.7628
vn 0.6596 -0.2635 0.7039
vn -0.4193 0.4849 0.7675
vn 0.6171 -0.4205 0.6651
vn -0.4922 0.4091 0.7684
vn -0.5266 0.3648 0.7679
vn -0.2300 0.6283 0.7432
vn 0.6694 0.1266 0.7321
vn 0.6833 -0.0594 0.7277
vn 0.5771 0.3617 0.7322
vn 0.6441 0.2634 0.7181
vn -0.5355 0.5913 0.6030
vn -0.1460 0.6797 0.7188
vn -0.8997 -0.4365 -0.0000
vn 0.5551 -0.8318 -0.0000
vn -0.8866 -0.3883 -0.2515
vn 0.5682 -0.7835 -0.2515
vn -0.8492 -0.2508 -0.4647
vn 0.6056 -0.6460 -0.4647
vn -0.7933 -0.0451 -0.6071
vn 0.6615 -0.4403 -0.6071
vn -0.7274 0.1976 -0.6571
vn 0.7274 -0.1976 -0.6572
vn -0.6615 0.4403 -0.6071
vn 0.7933 0.0451 -0.6071
vn -0.6056 0.6460 -0.4647
vn 0.8492 0.2508 -0.4647
vn -0.5682 0.7835 -0.2515
vn 0.8866 0.3882 -0.2515
vn -0.5551 0.8318 -0.0000
vn 0.8997 0.4365 -0.0000
vn -0.7933 -0.0450 -0.6071
vn -0.7274 0.1976 -0.6572
vn 0.8866 0.3883 -0.2515
vn -0.6341 0.1723 -0.7538
vn -0.6341 0.1723 0.7538
vn -0.6518 -0.0835 -0.7538
vn -0.6518 -0.0835 0.7538
vn -0.5702 -0.3266 -0.7538
vn -0.5702 -0.3266 0.7538
vn -0.4019 -0.5199 -0.7538
vn -0.4019 -0.5199 0.7538
vn -0.1723 -0.6342 -0.7538
vn -0.1723 -0.6341 0.7538
vn 0.0835 -0.6518 -0.7538
vn 0.0835 -0.6518 0.7538
vn 0.3266 -0.5702 -0.7538
vn 0.3266 -0.5702 0.7538
vn 0.5199 -0.4019 -0.7538
vn 0.5199 -0.4019 0.7538
vn 0.6341 -0.1723 -0.7538
vn 0.6341 -0.1723 0.7538
vn -0.6634 -0.0308 -0.7476
vn -0.6483 0.1778 -0.7403
vn 0.5565 -0.3630 -0.7473
vn 0.6509 -0.1772 -0.7382
vn 0.3683 -0.5403 -0.7566
vn 0.1076 -0.6441 -0.7573
vn -0.1714 -0.6292 -0.7581
vn -0.4184 -0.4996 -0.7585
vn -0.5896 -0.2805 -0.7574
vn -0.5703 -0.3266 0.7538
vn -0.4019 -0.5200 0.7538
vn -0.1723 -0.6341 -0.7538
vn 0.3266 -0.5703 0.7538
vn 0.6342 -0.1723 -0.7538
vn 0.6342 -0.1723 0.7538
vn -0.6634 -0.0316 0.7476
vn -0.7116 -0.5020 -0.4916
vn -0.7516 -0.3565 -0.5550
vn -0.7447 -0.0493 -0.6656
vn -0.6508 0.1765 0.7384
vn -0.7572 -0.1526 -0.6350
vn -0.7593 -0.2429 -0.6037
vn -0.6673 -0.6140 -0.4215
vn -0.5908 -0.2794 0.7569
vn -0.6323 -0.6813 -0.3689
vn -0.5768 -0.7491 -0.3258
vn -0.4187 -0.5009 0.7575
vn -0.5149 -0.8177 -0.2574
vn -0.1705 -0.6293 0.7582
vn -0.2691 -0.9543 -0.1302
vn -0.3004 -0.9417 -0.1514
vn -0.3523 -0.9197 -0.1734
vn -0.4139 -0.8885 -0.1981
vn -0.4681 -0.8561 -0.2189
vn 0.1081 -0.6426 0.7586
vn -0.0793 -0.9754 -0.2057
vn -0.1469 -0.9728 -0.1790
vn -0.2071 -0.9658 -0.1562
vn -0.2439 -0.9609 -0.1311
vn 0.3667 -0.5399 0.7576
vn 0.2042 -0.8994 -0.3864
vn 0.1449 -0.9268 -0.3464
vn 0.0673 -0.9536 -0.2936
vn 0.0080 -0.9690 -0.2471
vn -0.0266 -0.9742 -0.2241
vn 0.5562 -0.3624 0.7478
vn 0.6493 -0.1750 0.7402
vn 0.5937 -0.4666 -0.6556
vn 0.5014 -0.6362 -0.5864
vn 0.3885 -0.7668 -0.5110
vn 0.2887 -0.8529 -0.4351
vn 0.2470 -0.6822 -0.6882
vn 0.1708 0.6287 -0.7587
vn -0.1081 0.6424 -0.7587
vn 0.6808 -0.1361 -0.7197
vn 0.6826 -0.2024 -0.7022
vn 0.1260 -0.7145 -0.6882
vn 0.0013 -0.7255 -0.6882
vn 0.4182 0.5001 -0.7583
vn -0.5545 0.3608 -0.7499
vn 0.5525 -0.4702 -0.6882
vn -0.3672 0.5382 -0.7586
vn 0.4634 -0.5582 -0.6882
vn 0.3606 -0.6296 -0.6882
vn -0.6561 0.2271 -0.7197
vn -0.6662 0.2090 -0.7159
vn 0.6693 -0.2649 -0.6942
vn 0.6229 -0.3693 -0.6897
vn 0.5702 0.3266 -0.7538
vn 0.4019 0.5199 -0.7538
vn -0.3693 -0.6346 -0.6789
vn -0.2342 -0.6822 -0.6927
vn 0.1723 0.6341 -0.7538
vn -0.1705 -0.6916 -0.7018
vn -0.0835 0.6518 -0.7538
vn -0.3266 0.5702 -0.7538
vn -0.5199 0.4019 -0.7538
vn -0.1088 -0.7133 -0.6924
vn -0.5210 -0.5174 -0.6789
vn -0.6372 -0.3649 -0.6789
vn 0.6518 0.0835 -0.7538
vn -0.7099 -0.1876 -0.6789
vn -0.7343 0.0026 -0.6789
vn -0.7069 0.1432 -0.6927
vn 0.5905 0.2813 -0.7564
vn 0.6648 0.0309 -0.7463
vn -0.5506 0.4027 -0.7312
vn -0.6216 0.2884 -0.7283
vn -0.5495 0.5744 -0.6067
vn -0.2139 0.6511 -0.7282
vn -0.3344 0.5940 -0.7317
vn -0.4527 0.5107 -0.7309
vn 0.5766 0.3619 -0.7325
vn 0.6426 0.2567 -0.7219
vn 0.5890 0.2784 0.7586
vn 0.6610 0.0310 0.7498
vn 0.6646 0.1302 -0.7358
vn 0.6813 -0.0682 -0.7288
vn 0.6575 -0.2670 -0.7046
vn 0.4166 0.5025 -0.7576
vn 0.4183 0.4994 0.7587
vn 0.1708 0.6287 0.7587
vn -0.1047 0.6447 -0.7572
vn -0.1077 0.6428 0.7584
vn -0.3147 0.6040 -0.7322
vn -0.3670 0.5408 0.7568
vn -0.4224 0.5531 -0.7181
vn -0.5132 0.4482 -0.7320
vn -0.5572 0.3630 0.7468
vn -0.6199 0.2928 -0.7281
vn -0.7024 0.1063 -0.7038
vn -0.2342 -0.6822 0.6927
vn -0.1705 -0.6916 0.7018
vn -0.5465 0.5794 -0.6048
vn -0.5495 0.5743 0.6068
vn -0.7069 0.1432 0.6927
vn 0.6518 0.0835 0.7538
vn 0.5702 0.3266 0.7538
vn 0.4019 0.5199 0.7538
vn 0.1723 0.6341 0.7538
vn -0.0835 0.6518 0.7538
vn -0.3266 0.5703 0.7538
vn -0.5199 0.4019 0.7538
vn 0.6704 -0.2659 0.6927
vn 0.5875 -0.5263 -0.6147
vn 0.6829 -0.2034 0.7016
vn 0.5754 -0.5627 -0.5935
vn 0.5746 -0.5982 -0.5586
vn 0.5686 -0.6406 -0.5161
vn 0.5595 -0.6709 -0.4867
vn 0.5563 -0.7137 -0.4257
vn 0.6152 -0.4145 -0.6706
vn 0.6001 -0.4467 -0.6636
vn 0.5946 -0.4859 -0.6406
vn 0.6214 -0.3718 -0.6897
vn 0.6245 -0.3685 0.6887
vn 0.6032 -0.3883 -0.6967
vn 0.5525 -0.4702 0.6882
vn 0.4634 -0.5582 0.6882
vn 0.3606 -0.6296 0.6882
vn 0.2470 -0.6822 0.6882
vn 0.1260 -0.7145 0.6882
vn 0.0013 -0.7255 0.6882
vn -0.1088 -0.7133 0.6924
vn -0.7342 0.0026 0.6789
vn -0.7099 -0.1876 0.6789
vn -0.6372 -0.3649 0.6789
vn -0.5210 -0.5174 0.6789
vn -0.3693 -0.6346 0.6789
vn -0.1051 0.6442 0.7576
vn 0.4165 0.5031 0.7572
vn -0.6680 0.2277 0.7085
vn 0.6841 -0.2203 0.6953
vn -0.6195 0.3060 0.7229
vn -0.5513 0.4024 0.7309
vn -0.4538 0.5112 0.7299
vn -0.3358 0.5955 0.7298
vn -0.2124 0.6533 0.7267
vn 0.8793 0.4734 -0.0519
vn 0.8787 0.4749 0.0490
vn -0.5189 0.8533 -0.0519
vn -0.5176 0.8542 0.0490
vn -0.5682 0.7835 0.2515
vn -0.8594 -0.3486 0.3740
vn -0.8758 -0.4256 0.2275
vn -0.8586 -0.4817 0.1754
vn -0.8305 -0.4738 0.2929
vn -0.7274 0.1976 0.6572
vn -0.6615 0.4403 0.6071
vn -0.6098 0.3383 0.7167
vn -0.5599 0.5219 0.6435
vn -0.5173 0.6791 0.5209
vn -0.8026 -0.3712 0.4669
vn -0.7633 -0.2265 0.6050
vn -0.7156 -0.0508 0.6967
vn -0.6631 0.1424 0.7349
vn -0.6056 0.6460 0.4647
vn -0.7900 -0.0932 0.6060
vn -0.8288 -0.2358 0.5075
vn -0.4850 0.7977 0.3583
vn -0.4657 0.8688 0.1682
vn -0.4608 0.8868 -0.0348
vn -0.8866 -0.3883 0.2515
vn -0.4707 0.8504 -0.2351
vn -0.8492 -0.2508 0.4647
vn -0.7434 0.0233 0.6684
vn -0.7148 0.0771 0.6950
vn -0.5453 0.8168 0.1884
vn -0.7933 -0.0451 0.6071
vn -0.6053 0.3614 -0.7092
vn -0.7274 0.1976 0.6571
vn -0.5589 0.5323 -0.6359
vn -0.5659 0.7409 0.3616
vn -0.5985 0.6212 0.5059
vn -0.5813 0.5574 0.5928
vn -0.5258 0.6452 0.5543
vn -0.4884 0.7916 -0.3671
vn -0.5190 0.6790 -0.5192
vn -0.5177 0.7965 -0.3123
vn -0.5489 0.8119 -0.1990
vn -0.4902 0.7764 0.3962
vn -0.4676 0.8595 0.2064
vn -0.4784 0.8767 0.0513
vn -0.8866 -0.3882 0.2515
vn -0.4797 0.8761 -0.0472
vn -0.4692 0.8624 -0.1900
vn 0.8492 0.2508 0.4647
vn 0.8866 0.3883 0.2515
vn 0.4968 -0.8499 0.1754
vn 0.5400 -0.8103 0.2275
vn 0.5648 -0.7356 0.3740
vn 0.5955 -0.6227 0.5075
vn 0.7933 0.0450 0.6071
vn 0.7274 -0.1976 0.6571
vn 0.7933 0.0451 0.6071
vn 0.5437 -0.5817 0.6050
vn 0.5044 -0.7263 0.4669
vn 0.4766 -0.8289 0.2929
vn 0.6972 -0.0168 0.7167
vn 0.6440 -0.2127 0.7349
vn 0.5915 -0.4060 0.6967
vn 0.6615 -0.4403 0.6071
vn 0.8218 0.4357 -0.3671
vn 0.6056 -0.6460 0.4647
vn 0.8411 0.5064 -0.1900
vn 0.5682 -0.7835 0.2515
vn 0.8571 0.5129 -0.0472
vn 0.8562 0.5141 0.0513
vn 0.7049 0.0054 -0.7092
vn 0.7514 0.1763 -0.6359
vn 0.7913 0.3230 -0.5192
vn 0.6056 -0.6461 0.4647
vn 0.8496 0.4251 -0.3123
vn 0.8363 0.4953 -0.2351
vn 0.5522 -0.7744 -0.3090
vn 0.6707 -0.3291 0.6647
vn 0.6342 -0.4801 0.6060
vn 0.8462 0.5317 -0.0348
vn 0.8413 0.5137 0.1682
vn 0.8220 0.4426 0.3583
vn 0.7898 0.3240 0.5209
vn 0.7471 0.1668 0.6435
vn 0.6614 -0.4403 0.6071
vn 0.5376 -0.8289 -0.1545
vn 0.8630 0.3526 0.3616
vn 0.8837 0.4285 0.1884
vn 0.8842 0.4225 -0.1990
vn 0.8382 0.5047 0.2064
vn 0.8156 0.4216 0.3962
vn 0.7800 0.2905 0.5543
vn 0.7834 0.1866 0.5928
vn 0.8305 0.2329 0.5059
vn -0.3266 0.5702 0.7538
vn 0.6032 -0.3883 0.6967
vn -0.7016 0.1355 0.6995
vn -0.9492 -0.2955 -0.1086
vn -0.9414 -0.2767 -0.1928
vn -0.9311 -0.2388 -0.2756
vn -0.8821 -0.1425 -0.4490
vn -0.9079 -0.1914 -0.3729
vn -0.8505 -0.0723 -0.5210
vn -0.5685 0.3300 -0.7536
vn -0.6295 0.2594 -0.7324
vn -0.7050 0.1644 -0.6899
vn -0.7599 0.0789 -0.6452
vn -0.8031 0.0129 -0.5956
vn -0.5012 0.4074 -0.7634
vn -0.4074 0.4963 -0.7667
vn -0.3052 0.5831 -0.7529
vn -0.1959 0.6553 -0.7295
s 1
f 1//1 2//2 3//3
f 4//4 5//5 6//6
f 7//7 8//8 9//9
f 9//9 8//8 10//10
f 9//9 10//10 11//11
f 12//12 13//13 14//14
f 14//14 15//15 12//12
f 12//12 15//15 16//16
f 12//12 16//16 17//17
f 17//17 16//16 18//18
f 17//17 18//18 19//19
f 19//19 18//18 20//20
f 19//19 20//20 21//21
f 21//21 20//20 22//22
f 22//22 20//20 23//23
f 22//22 23//23 24//24
f 24//24 23//23 25//25
f 25//25 23//23 26//26
f 25//25 26//26 27//27
f 27//27 26//26 28//28
f 27//27 28//28 29//29
f 29//29 28//28 30//30
f 29//29 30//30 6//6
f 6//6 30//30 31//31
f 6//6 31//31 4//4
f 32//32 33//33 11//11
f 34//34 35//35 11//11
f 11//11 35//35 36//36
f 11//11 36//36 32//32
f 33//33 37//37 11//11
f 11//11 37//37 38//38
f 11//11 38//38 9//9
f 9//9 38//38 39//39
f 9//9 39//39 40//40
f 40//40 41//41 9//9
f 9//9 41//41 42//42
f 9//9 42//42 12//12
f 12//12 42//42 43//43
f 12//12 43//43 13//13
f 34//34 44//44 35//35
f 35//35 44//44 45//45
f 35//35 45//45 46//46
f 47//47 48//48 45//45
f 45//45 48//48 49//49
f 45//45 49//49 46//46
f 47//47 50//50 48//48
f 48//48 50//50 51//51
f 48//48 51//51 52//52
f 52//52 51//51 53//53
f 3//3 2//2 54//54
f 53//53 51//51 2//2
f 2//2 51//51 55//55
f 2//2 55//55 54//54
f 56//56 57//57 58//58
f 58//58 57//57 59//59
f 58//58 59//59 60//60
f 1//1 3//3 59//59
f 59//59 3//3 61//61
f 59//59 61//61 60//60
f 62//62 63//63 56//56
f 56//56 63//63 64//64
f 56//56 64//64 57//57
f 65//65 66//66 67//67
f 67//67 66//66 63//63
f 67//67 63//63 68//68
f 68//68 63//63 62//62
f 69//69 70//70 71//71
f 71//71 70//70 72//72
f 71//71 72//72 73//73
f 73//73 72//72 74//74
f 73//73 74//74 75//75
f 75//75 74//74 76//76
f 75//75 76//76 77//77
f 77//77 76//76 78//78
f 77//77 78//78 79//79
f 79//79 78//78 80//80
f 79//79 80//80 81//81
f 81//81 80//80 82//82
f 81//81 82//82 83//83
f 83//83 82//82 84//84
f 83//83 84//84 85//85
f 85//85 84//84 86//86
f 87//69 88//70 89//71
f 89//71 88//70 90//72
f 89//71 90//72 91//73
f 91//73 90//72 92//74
f 91//73 92//74 93//87
f 93//87 92//74 94//76
f 93//87 94//76 95//88
f 95//88 94//76 96//78
f 95//88 96//78 97//79
f 97//79 96//78 98//80
f 97//79 98//80 99//81
f 99//81 98//80 100//82
f 99//81 100//82 101//83
f 101//83 100//82 102//89
f 101//83 102//89 103//85
f 103//85 102//89 104//86
f 105//90 106//91 107//92
f 107//92 106//91 108//93
f 107//92 108//93 109//94
f 109//94 108//93 110//95
f 109//94 110//95 111//96
f 111//96 110//95 112//97
f 111//96 112//97 113//98
f 113//98 112//97 114//99
f 113//98 114//99 115//100
f 115//100 114//99 116//101
f 115//100 116//101 117//102
f 117//102 116//101 118//103
f 117//102 118//103 119//104
f 119//104 118//103 120//105
f 119//104 120//105 121//106
f 121//106 120//105 122//107
f 123//108 124//109 26//26
f 125//110 52//52 53//53
f 59//59 126//111 1//1
f 1//1 126//111 125//110
f 1//1 125//110 2//2
f 2//2 125//110 53//53
f 52//52 125//110 48//48
f 48//48 125//110 127//112
f 48//48 127//112 49//49
f 49//49 127//112 46//46
f 46//46 127//112 128//113
f 46//46 128//113 35//35
f 129//114 38//38 37//37
f 37//37 33//33 129//114
f 129//114 33//33 32//32
f 129//114 32//32 128//113
f 128//113 32//32 36//36
f 128//113 36//36 35//35
f 130//115 42//42 129//114
f 129//114 42//42 41//41
f 41//41 40//40 129//114
f 129//114 40//40 39//39
f 129//114 39//39 38//38
f 131//116 16//16 130//115
f 130//115 16//16 15//15
f 130//115 15//15 14//14
f 14//14 13//13 130//115
f 130//115 13//13 43//43
f 130//115 43//43 42//42
f 26//26 23//23 123//108
f 123//108 23//23 20//20
f 123//108 20//20 131//116
f 131//116 20//20 18//18
f 131//116 18//18 16//16
f 132//90 133//91 134//92
f 134//92 133//91 135//93
f 134//92 135//93 136//94
f 136//94 135//93 137//117
f 136//94 137//117 138//96
f 138//96 137//117 139//118
f 138//96 139//118 140//119
f 140//119 139//118 141//99
f 140//119 141//99 142//100
f 142//100 141//99 143//101
f 142//100 143//101 144//102
f 144//102 143//101 145//120
f 144//102 145//120 146//104
f 146//104 145//120 147//105
f 146//104 147//105 148//121
f 148//121 147//105 149//122
f 150//123 151//124 152//125
f 153//126 154//127 155//128
f 155//128 154//127 150//123
f 155//128 150//123 156//129
f 156//129 150//123 152//125
f 151//124 150//123 157//130
f 157//130 150//123 158//131
f 157//130 158//131 159//132
f 159//132 158//131 160//133
f 160//133 158//131 161//134
f 160//133 161//134 162//135
f 163//136 164//137 165//138
f 165//138 166//139 163//136
f 163//136 166//139 167//140
f 163//136 167//140 161//134
f 161//134 167//140 168//141
f 161//134 168//141 162//135
f 169//142 170//143 163//136
f 163//136 170//143 171//144
f 171//144 172//145 163//136
f 163//136 172//145 173//146
f 163//136 173//146 164//137
f 174//147 175//148 169//142
f 169//142 175//148 176//149
f 169//142 176//149 177//150
f 177//150 178//151 169//142
f 169//142 178//151 179//152
f 169//142 179//152 170//143
f 180//153 181//154 182//155
f 182//155 183//156 180//153
f 180//153 183//156 184//157
f 180//153 184//157 174//147
f 174//147 184//157 185//158
f 174//147 185//158 175//148
f 186//159 187//160 188//161
f 189//162 190//163 123//108
f 186//159 191//164 187//160
f 187//160 191//164 192//165
f 187//160 192//165 193//166
f 194//167 195//168 196//169
f 196//169 195//168 197//170
f 196//169 197//170 188//161
f 188//161 197//170 198//171
f 188//161 198//171 186//159
f 199//172 128//113 200//173
f 200//173 128//113 127//112
f 123//108 190//163 124//109
f 124//109 190//163 201//174
f 124//109 201//174 194//167
f 194//167 201//174 202//175
f 194//167 202//175 195//168
f 123//108 131//116 189//162
f 189//162 131//116 130//115
f 189//162 130//115 199//172
f 199//172 130//115 129//114
f 199//172 129//114 128//113
f 203//176 204//177 205//178
f 205//178 204//177 206//179
f 206//179 204//177 207//180
f 206//179 207//180 208//181
f 208//181 207//180 209//182
f 208//181 209//182 210//183
f 210//183 211//184 208//181
f 208//181 211//184 193//166
f 208//181 193//166 212//185
f 212//185 193//166 192//165
f 205//178 213//186 203//176
f 203//176 213//186 214//187
f 203//176 214//187 215//188
f 215//188 214//187 216//189
f 215//188 216//189 121//106
f 121//106 216//189 217//190
f 121//106 217//190 119//104
f 119//104 217//190 218//191
f 119//104 218//191 117//102
f 211//184 105//90 193//166
f 193//166 105//90 107//92
f 193//166 107//92 219//192
f 219//192 107//92 109//94
f 219//192 109//94 220//193
f 220//193 109//94 111//96
f 220//193 111//96 126//111
f 126//111 111//96 125//110
f 221//194 222//195 113//98
f 113//98 222//195 200//173
f 113//98 200//173 111//96
f 111//96 200//173 127//112
f 111//96 127//112 125//110
f 218//191 223//196 117//102
f 117//102 223//196 224//197
f 117//102 224//197 115//100
f 115//100 224//197 225//198
f 115//100 225//198 113//98
f 113//98 225//198 226//199
f 113//98 226//199 221//194
f 227//200 228//201 229//202
f 229//202 228//201 230//203
f 228//201 231//204 230//203
f 230//203 231//204 232//205
f 230//203 232//205 181//154
f 181//154 232//205 233//206
f 181//154 233//206 182//155
f 227//200 229//202 234//207
f 234//207 229//202 235//208
f 234//207 235//208 236//160
f 236//160 235//208 237//209
f 236//160 237//209 238//210
f 238//210 237//209 239//211
f 238//210 239//211 240//212
f 240//212 239//211 241//213
f 240//212 241//213 242//214
f 242//214 241//213 243//215
f 243//215 241//213 244//216
f 243//215 244//216 245//217
f 245//217 244//216 246//218
f 246//218 244//216 154//127
f 246//218 154//127 153//126
f 247//219 248//179 249//220
f 249//220 248//179 250//181
f 251//221 252//191 253//222
f 253//222 252//191 254//223
f 148//121 149//122 255//188
f 255//188 149//122 256//224
f 255//188 256//224 257//176
f 257//176 256//224 258//225
f 257//176 258//225 259//177
f 259//177 258//225 260//226
f 259//177 260//226 261//180
f 261//180 260//226 262//227
f 261//180 262//227 263//182
f 263//182 262//227 264//228
f 263//182 264//228 265//183
f 265//183 264//228 266//229
f 265//183 266//229 267//184
f 267//184 266//229 268//230
f 267//184 268//230 132//90
f 132//90 268//230 133//91
f 269//231 270//232 271//233
f 271//233 270//232 272//234
f 271//233 272//234 273//235
f 273//235 274//236 271//233
f 271//233 274//236 275//237
f 271//233 275//237 276//238
f 277//239 278//240 269//231
f 269//231 278//240 279//241
f 269//231 279//241 270//232
f 277//239 269//231 280//242
f 280//242 269//231 281//243
f 280//242 281//243 282//244
f 282//244 281//243 283//245
f 282//244 283//245 284//168
f 284//168 283//245 285//246
f 284//168 285//246 286//170
f 286//170 285//246 287//247
f 286//170 287//247 288//171
f 288//171 287//247 289//248
f 288//171 289//248 290//159
f 290//159 289//248 291//249
f 290//159 291//249 292//164
f 292//164 291//249 293//250
f 292//164 293//250 294//165
f 294//165 293//250 295//251
f 294//165 295//251 296//185
f 296//185 295//251 249//220
f 296//185 249//220 250//181
f 254//223 252//191 297//190
f 254//223 297//190 298//252
f 298//252 297//190 299//189
f 298//252 299//189 300//253
f 300//253 299//189 301//187
f 300//253 301//187 302//254
f 302//254 301//187 303//186
f 302//254 303//186 304//255
f 304//255 303//186 305//178
f 304//255 305//178 306//256
f 306//256 305//178 248//179
f 306//256 248//179 247//219
f 5//5 4//4 196//169
f 196//169 4//4 194//167
f 4//4 31//31 194//167
f 194//167 31//31 30//30
f 194//167 30//30 124//109
f 124//109 30//30 28//28
f 124//109 28//28 26//26
f 5//5 196//169 307//257
f 307//257 196//169 188//161
f 307//257 188//161 308//209
f 308//209 188//161 187//160
f 308//209 187//160 309//258
f 309//258 187//160 193//166
f 309//258 193//166 65//65
f 65//65 193//166 219//192
f 65//65 219//192 66//66
f 66//66 219//192 63//63
f 63//63 219//192 220//193
f 63//63 220//193 64//64
f 64//64 220//193 57//57
f 57//57 220//193 126//111
f 57//57 126//111 59//59
f 241//213 239//211 287//247
f 287//247 239//211 289//248
f 289//248 239//211 237//209
f 289//248 237//209 291//249
f 180//153 174//147 310//259
f 291//249 237//209 293//250
f 293//250 237//209 235//208
f 293//250 235//208 295//251
f 141//99 229//202 230//203
f 311//260 158//131 271//233
f 271//233 158//131 150//123
f 271//233 150//123 269//231
f 269//231 150//123 154//127
f 269//231 154//127 281//243
f 281//243 154//127 244//216
f 281//243 244//216 283//245
f 283//245 244//216 241//213
f 283//245 241//213 285//246
f 285//246 241//213 287//247
f 180//153 310//259 181//154
f 174//147 169//142 310//259
f 310//259 169//142 163//136
f 310//259 163//136 311//260
f 311//260 163//136 161//134
f 311//260 161//134 158//131
f 141//99 139//118 229//202
f 229//202 139//118 137//117
f 229//202 137//117 235//208
f 235//208 137//117 135//93
f 235//208 135//93 133//91
f 133//91 268//230 235//208
f 235//208 268//230 249//220
f 235//208 249//220 295//251
f 145//120 253//222 147//105
f 147//105 253//222 254//223
f 147//105 254//223 149//122
f 149//122 254//223 298//252
f 149//122 298//252 256//224
f 312//261 141//99 310//259
f 310//259 141//99 230//203
f 310//259 230//203 181//154
f 268//230 266//229 249//220
f 249//220 266//229 264//228
f 249//220 264//228 247//219
f 247//219 264//228 262//227
f 247//219 262//227 306//256
f 306//256 262//227 260//226
f 306//256 260//226 304//255
f 304//255 260//226 258//225
f 304//255 258//225 302//254
f 302//254 258//225 256//224
f 302//254 256//224 300//253
f 300//253 256//224 298//252
f 312//261 313//262 141//99
f 141//99 313//262 314//263
f 141//99 314//263 143//101
f 143//101 314//263 315//264
f 143//101 315//264 145//120
f 145//120 315//264 316//265
f 145//120 316//265 253//222
f 317//266 318//267 319//268
f 319//268 318//267 320//269
f 83//83 85//85 200//173
f 103//85 321//270 322//271
f 322//271 323//272 103//85
f 103//85 323//272 324//273
f 103//85 324//273 101//83
f 101//83 324//273 325//274
f 101//83 325//274 99//81
f 75//75 77//77 326//275
f 326//275 77//77 327//276
f 327//276 77//77 79//79
f 327//276 79//79 81//81
f 95//88 328//277 93//87
f 93//87 328//277 329//278
f 93//87 329//278 91//73
f 91//73 329//278 330//279
f 91//73 330//279 89//71
f 325//274 331//280 99//81
f 99//81 331//280 332//281
f 99//81 332//281 97//79
f 97//79 332//281 333//282
f 97//79 333//282 95//88
f 95//88 333//282 334//283
f 95//88 334//283 328//277
f 335//284 336//285 321//270
f 321//270 336//285 337//286
f 321//270 337//286 322//271
f 330//279 338//287 89//71
f 89//71 338//287 339//288
f 89//71 339//288 87//69
f 87//69 339//288 340//289
f 87//69 340//289 341//290
f 341//290 340//289 342//291
f 341//290 342//291 343//292
f 335//284 327//276 336//285
f 336//285 327//276 81//81
f 336//285 81//81 344//293
f 344//293 81//81 83//83
f 344//293 83//83 345//294
f 345//294 83//83 200//173
f 320//269 346//295 347//296
f 85//85 348//270 200//173
f 200//173 348//270 349//284
f 200//173 349//284 199//172
f 199//172 349//284 350//276
f 199//172 350//276 351//297
f 351//297 350//276 352//298
f 351//297 352//298 353//299
f 353//299 352//298 354//296
f 346//295 355//300 347//296
f 347//296 355//300 71//71
f 347//296 71//71 326//275
f 326//275 71//71 73//73
f 326//275 73//73 75//75
f 355//300 356//301 71//71
f 71//71 356//301 357//302
f 71//71 357//302 358//303
f 359//292 360//304 354//296
f 354//296 360//304 361//305
f 354//296 361//305 353//299
f 342//291 362//306 343//292
f 343//292 362//306 363//307
f 343//292 363//307 347//296
f 347//296 363//307 319//268
f 347//296 319//268 320//269
f 358//303 364//308 71//71
f 71//71 364//308 365//309
f 71//71 365//309 69//69
f 69//69 365//309 366//310
f 69//69 366//310 367//311
f 367//311 366//310 368//312
f 367//311 368//312 359//292
f 359//292 368//312 369//313
f 359//292 369//313 360//304
f 12//12 17//17 190//163
f 190//163 370//314 371//315
f 102//89 372//316 104//86
f 104//86 372//316 373//317
f 104//86 373//317 374//315
f 374//315 373//317 375//318
f 374//315 375//318 376//319
f 370//314 190//163 377//320
f 377//320 190//163 189//162
f 377//320 189//162 378//321
f 84//84 379//321 86//86
f 86//86 379//321 380//322
f 98//80 381//323 100//82
f 100//82 381//323 382//324
f 100//82 382//324 102//89
f 102//89 382//324 383//325
f 102//89 383//325 372//316
f 94//76 384//326 96//78
f 96//78 384//326 385//327
f 96//78 385//327 98//80
f 98//80 385//327 386//328
f 98//80 386//328 381//323
f 387//329 388//330 389//331
f 389//331 388//330 390//332
f 389//331 390//332 391//333
f 391//333 390//332 392//334
f 391//333 392//334 70//70
f 70//70 392//334 393//335
f 70//70 393//335 72//72
f 189//162 394//336 378//321
f 378//321 394//336 395//337
f 378//321 395//337 387//329
f 387//329 395//337 396//338
f 387//329 396//338 388//330
f 397//339 398//340 399//333
f 399//333 398//340 400//341
f 399//333 400//341 88//70
f 271//233 276//238 311//260
f 311//260 276//238 401//342
f 311//260 401//342 402//343
f 402//343 401//342 403//344
f 400//341 404//345 88//70
f 88//70 404//345 405//346
f 88//70 405//346 90//72
f 90//72 405//346 406//347
f 90//72 406//347 92//74
f 92//74 406//347 407//348
f 92//74 407//348 94//76
f 94//76 407//348 408//349
f 94//76 408//349 384//326
f 84//84 82//82 379//321
f 379//321 82//82 80//80
f 379//321 80//80 409//350
f 409//350 80//80 78//78
f 376//319 403//344 374//315
f 374//315 403//344 401//342
f 374//315 401//342 410//314
f 410//314 401//342 411//351
f 410//314 411//351 380//322
f 380//322 411//351 7//7
f 380//322 7//7 9//9
f 371//315 86//86 190//163
f 190//163 86//86 380//322
f 190//163 380//322 12//12
f 12//12 380//322 9//9
f 412//352 413//353 78//78
f 78//78 413//353 318//267
f 78//78 318//267 409//350
f 409//350 318//267 317//266
f 409//350 317//266 397//339
f 397//339 317//266 414//354
f 397//339 414//354 398//340
f 393//335 415//355 72//72
f 72//72 415//355 416//356
f 72//72 416//356 74//74
f 74//74 416//356 417//357
f 74//74 417//357 76//76
f 76//76 417//357 418//358
f 76//76 418//358 78//78
f 78//78 418//358 419//359
f 78//78 419//359 412//352
f 206//179 208//181 420//219
f 420//219 208//181 421//220
f 67//67 223//196 422//223
f 422//223 223//196 218//191
f 121//106 122//107 215//188
f 215//188 122//107 423//224
f 215//188 423//224 203//176
f 203//176 423//224 424//225
f 203//176 424//225 204//177
f 204//177 424//225 425//226
f 204//177 425//226 207//180
f 207//180 425//226 426//227
f 207//180 426//227 209//182
f 209//182 426//227 427//228
f 209//182 427//228 210//183
f 210//183 427//228 428//360
f 210//183 428//360 211//184
f 211//184 428//360 429//230
f 211//184 429//230 105//90
f 105//90 429//230 106//91
f 25//25 27//27 201//174
f 201//174 27//27 29//29
f 201//174 29//29 202//175
f 202//175 29//29 6//6
f 190//163 17//17 19//19
f 19//19 21//21 190//163
f 190//163 21//21 22//22
f 190//163 22//22 201//174
f 201//174 22//22 24//24
f 201//174 24//24 25//25
f 6//6 430//361 202//175
f 202//175 430//361 431//245
f 202//175 431//245 195//168
f 195//168 431//245 432//246
f 195//168 432//246 197//170
f 197//170 432//246 433//247
f 197//170 433//247 198//171
f 198//171 433//247 434//248
f 198//171 434//248 186//159
f 186//159 434//248 435//249
f 186//159 435//249 191//164
f 191//164 435//249 436//250
f 191//164 436//250 192//165
f 192//165 436//250 437//251
f 192//165 437//251 212//185
f 212//185 437//251 421//220
f 212//185 421//220 208//181
f 422//223 218//191 217//190
f 422//223 217//190 438//252
f 438//252 217//190 216//189
f 438//252 216//189 439//253
f 439//253 216//189 214//187
f 439//253 214//187 440//254
f 440//254 214//187 213//186
f 440//254 213//186 441//255
f 441//255 213//186 205//178
f 441//255 205//178 442//256
f 442//256 205//178 206//179
f 442//256 206//179 420//219
f 103//85 104//86 321//270
f 321//270 104//86 374//315
f 321//270 374//315 335//284
f 335//284 374//315 410//314
f 335//284 410//314 327//276
f 327//276 410//314 380//322
f 327//276 380//322 326//275
f 326//275 380//322 379//321
f 326//275 379//321 347//296
f 347//296 379//321 409//350
f 347//296 409//350 343//292
f 343//292 409//350 397//339
f 343//292 397//339 341//290
f 341//290 397//339 399//333
f 341//290 399//333 87//69
f 87//69 399//333 88//70
f 85//85 86//86 348//270
f 348//270 86//86 371//315
f 348//270 371//315 349//284
f 349//284 371//315 370//314
f 349//284 370//314 350//276
f 350//276 370//314 377//320
f 350//276 377//320 352//298
f 352//298 377//320 378//321
f 352//298 378//321 354//296
f 354//296 378//321 387//329
f 354//296 387//329 359//292
f 359//292 387//329 389//331
f 359//292 389//331 367//311
f 367//311 389//331 391//333
f 367//311 391//333 69//69
f 69//69 391//333 70//70
f 433//247 307//257 434//248
f 434//248 307//257 308//209
f 433//247 432//246 307//257
f 307//257 432//246 431//245
f 307//257 431//245 5//5
f 5//5 431//245 430//361
f 5//5 430//361 6//6
f 421//220 437//251 309//258
f 309//258 437//251 436//250
f 309//258 436//250 308//209
f 308//209 436//250 435//249
f 308//209 435//249 434//248
f 118//103 67//67 120//105
f 120//105 67//67 422//223
f 120//105 422//223 122//107
f 122//107 422//223 438//252
f 122//107 438//252 423//224
f 118//103 116//101 67//67
f 67//67 116//101 114//99
f 67//67 114//99 65//65
f 438//252 439//253 423//224
f 423//224 439//253 440//254
f 423//224 440//254 424//225
f 424//225 440//254 441//255
f 424//225 441//255 425//226
f 425//226 441//255 442//256
f 425//226 442//256 426//227
f 426//227 442//256 420//219
f 426//227 420//219 427//228
f 427//228 420//219 421//220
f 427//228 421//220 428//360
f 428//360 421//220 429//230
f 429//230 421//220 309//258
f 429//230 309//258 106//91
f 114//99 112//97 65//65
f 65//65 112//97 110//95
f 65//65 110//95 309//258
f 309//258 110//95 108//93
f 309//258 108//93 106//91
f 280//242 282//244 240//212
f 240//212 282//244 284//168
f 240//212 284//168 238//210
f 227//200 138//96 251//221
f 251//221 138//96 140//119
f 257//176 259//177 305//178
f 305//178 259//177 248//179
f 248//179 259//177 261//180
f 248//179 261//180 250//181
f 250//181 261//180 263//182
f 250//181 263//182 296//185
f 296//185 263//182 265//183
f 296//185 265//183 294//165
f 294//165 265//183 267//184
f 294//165 267//184 292//164
f 292//164 267//184 290//159
f 290//159 267//184 132//90
f 290//159 132//90 288//171
f 284//168 286//170 238//210
f 238//210 286//170 288//171
f 238//210 288//171 236//160
f 236//160 288//171 132//90
f 236//160 132//90 234//207
f 234//207 132//90 134//92
f 234//207 134//92 227//200
f 227//200 134//92 136//94
f 227//200 136//94 138//96
f 305//178 303//186 257//176
f 257//176 303//186 301//187
f 257//176 301//187 255//188
f 255//188 301//187 299//189
f 255//188 299//189 148//121
f 148//121 299//189 297//190
f 148//121 297//190 146//104
f 146//104 297//190 252//191
f 146//104 252//191 144//102
f 144//102 252//191 251//221
f 144//102 251//221 142//100
f 142//100 251//221 140//119
f 393//335 366//310 365//309
f 393//335 365//309 415//355
f 415//355 365//309 364//308
f 415//355 364//308 416//356
f 416//356 364//308 358//303
f 416//356 358//303 417//357
f 417//357 358//303 357//302
f 417//357 357//302 418//358
f 368//312 366//310 392//334
f 392//334 366//310 393//335
f 418//358 357//302 419//359
f 419//359 357//302 356//301
f 419//359 356//301 412//352
f 412//352 356//301 355//300
f 412//352 355//300 413//353
f 413//353 355//300 346//295
f 413//353 346//295 318//267
f 318//267 346//295 320//269
f 398//340 362//306 342//291
f 398//340 342//291 400//341
f 400//341 342//291 340//289
f 400//341 340//289 404//345
f 404//345 340//289 339//288
f 404//345 339//288 405//346
f 405//346 339//288 338//287
f 405//346 338//287 406//347
f 406//347 338//287 330//279
f 406//347 330//279 407//348
f 407//348 330//279 329//278
f 407//348 329//278 408//349
f 408//349 329//278 328//277
f 408//349 328//277 384//326
f 384//326 328//277 334//283
f 384//326 334//283 385//327
f 385//327 334//283 333//282
f 385//327 333//282 386//328
f 386//328 333//282 332//281
f 386//328 332//281 381//323
f 381//323 332//281 331//280
f 381//323 331//280 382//324
f 382//324 331//280 325//274
f 382//324 325//274 383//325
f 383//325 325//274 324//273
f 383//325 324//273 372//316
f 317//266 319//268 414//354
f 414//354 319//268 363//307
f 414//354 363//307 398//340
f 398//340 363//307 362//306
f 189//162 199//172 351//297
f 189//162 351//297 394//336
f 394//336 351//297 353//299
f 394//336 353//299 395//337
f 395//337 353//299 361//305
f 395//337 361//305 396//338
f 396//338 361//305 360//304
f 396//338 360//304 388//330
f 388//330 360//304 369//313
f 388//330 369//313 390//332
f 390//332 369//313 368//312
f 390//332 368//312 392//334
f 402//343 345//294 311//260
f 311//260 345//294 443//362
f 311//260 443//362 310//259
f 372//316 324//273 373//317
f 373//317 324//273 323//272
f 373//317 323//272 375//318
f 375//318 323//272 322//271
f 375//318 322//271 376//319
f 376//319 322//271 337//286
f 376//319 337//286 403//344
f 403//344 337//286 336//285
f 403//344 336//285 402//343
f 402//343 336//285 344//293
f 402//343 344//293 345//294
f 228//201 227//200 251//221
f 8//8 7//7 444//363
f 444//363 7//7 411//351
f 444//363 411//351 445//364
f 167//140 166//139 411//351
f 401//342 162//135 411//351
f 411//351 162//135 168//141
f 411//351 168//141 167//140
f 166//139 165//138 411//351
f 411//351 165//138 164//137
f 411//351 164//137 445//364
f 445//364 164//137 173//146
f 445//364 173//146 172//145
f 172//145 171//144 445//364
f 445//364 171//144 170//143
f 445//364 170//143 446//365
f 446//365 170//143 179//152
f 446//365 179//152 178//151
f 177//150 447//366 178//151
f 178//151 447//366 448//367
f 178//151 448//367 446//365
f 185//158 449//368 175//148
f 175//148 449//368 447//366
f 175//148 447//366 176//149
f 176//149 447//366 177//150
f 450//369 451//370 183//156
f 183//156 451//370 452//371
f 183//156 452//371 184//157
f 184//157 452//371 453//372
f 184//157 453//372 185//158
f 185//158 453//372 454//373
f 185//158 454//373 449//368
f 450//369 183//156 455//374
f 455//374 183//156 182//155
f 455//374 182//155 456//375
f 456//375 182//155 233//206
f 456//375 233//206 457//376
f 457//376 233//206 458//377
f 458//377 233//206 232//205
f 458//377 232//205 251//221
f 251//221 232//205 231//204
f 251//221 231//204 228//201
f 152//125 151//124 275//237
f 275//237 151//124 157//130
f 275//237 157//130 276//238
f 276//238 157//130 159//132
f 276//238 159//132 401//342
f 401//342 159//132 160//133
f 401//342 160//133 162//135
f 240//212 242//214 280//242
f 280//242 242//214 243//215
f 280//242 243//215 277//239
f 277//239 243//215 245//217
f 277//239 245//217 278//240
f 278//240 245//217 246//218
f 278//240 246//218 279//241
f 279//241 246//218 153//126
f 279//241 153//126 270//232
f 270//232 153//126 155//128
f 270//232 155//128 272//234
f 272//234 155//128 156//129
f 272//234 156//129 273//235
f 273//235 156//129 152//125
f 273//235 152//125 274//236
f 274//236 152//125 275//237
f 443//362 345//294 200//173
f 251//221 253//222 458//377
f 458//377 253//222 316//265
f 315//264 456//375 316//265
f 316//265 456//375 457//376
f 316//265 457//376 458//377
f 453//372 452//371 314//263
f 452//371 451//370 314//263
f 314//263 451//370 450//369
f 314//263 450//369 315//264
f 315//264 450//369 455//374
f 315//264 455//374 456//375
f 45//45 44//44 221//194
f 44//44 34//34 221//194
f 221//194 34//34 11//11
f 221//194 11//11 10//10
f 8//8 444//363 313//262
f 444//363 445//364 313//262
f 313//262 445//364 446//365
f 313//262 446//365 448//367
f 448//367 447//366 313//262
f 313//262 447//366 449//368
f 313//262 449//368 314//263
f 314//263 449//368 454//373
f 314//263 454//373 453//372
f 54//54 55//55 226//199
f 54//54 226//199 3//3
f 55//55 51//51 226//199
f 226//199 51//51 50//50
f 226//199 50//50 221//194
f 221//194 50//50 47//47
f 221//194 47//47 45//45
f 56//56 58//58 225//198
f 225//198 58//58 60//60
f 225//198 60//60 226//199
f 226//199 60//60 61//61
f 226//199 61//61 3//3
f 56//56 225//198 62//62
f 62//62 225//198 224//197
f 62//62 224//197 68//68
f 68//68 224//197 223//196
f 68//68 223//196 67//67
f 10//10 8//8 221//194
f 221//194 8//8 313//262
f 221//194 313//262 222//195
f 222//195 313//262 312//261
f 222//195 312//261 200//173
f 200//173 312//261 310//259
f 200//173 310//259 443//362
